<svg xmlns="http://www.w3.org/2000/svg" viewBox="0 0 771 362"><rect width="771" height="362" fill="#FFFFFF"></rect><g transform="translate(48,48)"><path d="M16.02 14.23L16.02 14.23Q14.85 14.23 14.05 13.86Q13.26 13.48 12.84 12.83Q12.42 12.18 12.42 11.35L12.42 11.35L14.08 11.35Q14.08 11.70 14.28 12.03Q14.47 12.36 14.89 12.56Q15.32 12.76 16.02 12.76L16.02 12.76Q16.64 12.76 17.06 12.58Q17.48 12.40 17.68 12.11Q17.89 11.82 17.89 11.44L17.89 11.44Q17.89 10.98 17.49 10.69Q17.10 10.41 16.27 10.34L16.27 10.34L15.50 10.28Q14.24 10.17 13.49 9.49Q12.74 8.82 12.74 7.70L12.74 7.70Q12.74 6.86 13.14 6.25Q13.53 5.65 14.25 5.32Q14.96 4.99 15.92 4.99L15.92 4.99Q16.92 4.99 17.64 5.34Q18.36 5.68 18.75 6.31Q19.15 6.94 19.15 7.80L19.15 7.80L17.48 7.80Q17.48 7.44 17.31 7.13Q17.13 6.82 16.79 6.64Q16.45 6.45 15.92 6.45L15.92 6.45Q15.42 6.45 15.08 6.62Q14.74 6.79 14.58 7.08Q14.41 7.36 14.41 7.70L14.41 7.70Q14.41 8.11 14.71 8.41Q15.01 8.72 15.66 8.77L15.66 8.77L16.42 8.84Q17.36 8.91 18.07 9.24Q18.78 9.56 19.17 10.11Q19.56 10.66 19.56 11.44L19.56 11.44Q19.56 12.27 19.12 12.90Q18.69 13.53 17.89 13.88Q17.10 14.23 16.02 14.23ZM27.23 14.23L27.23 14.23Q26.04 14.23 25.17 13.81Q24.30 13.39 23.73 12.71Q23.16 12.03 22.88 11.25Q22.60 10.46 22.60 9.73L22.60 9.73L22.60 9.46Q22.60 8.66 22.89 7.86Q23.18 7.06 23.76 6.42Q24.34 5.77 25.20 5.38Q26.07 4.99 27.23 4.99L27.23 4.99Q28.38 4.99 29.25 5.38Q30.11 5.77 30.69 6.42Q31.28 7.06 31.56 7.86Q31.85 8.66 31.85 9.46L31.85 9.46L31.85 9.73Q31.85 10.46 31.57 11.25Q31.29 12.03 30.72 12.71Q30.15 13.39 29.28 13.81Q28.41 14.23 27.23 14.23ZM27.23 12.64L27.23 12.64Q27.90 12.64 28.44 12.40Q28.97 12.16 29.35 11.74Q29.73 11.31 29.93 10.77Q30.12 10.22 30.12 9.61L30.12 9.61Q30.12 8.95 29.93 8.40Q29.73 7.84 29.35 7.44Q28.97 7.03 28.43 6.80Q27.89 6.57 27.23 6.57L27.23 6.57Q26.56 6.57 26.02 6.80Q25.48 7.03 25.10 7.44Q24.72 7.84 24.53 8.40Q24.33 8.95 24.33 9.61L24.33 9.61Q24.33 10.22 24.53 10.77Q24.72 11.31 25.10 11.74Q25.48 12.16 26.02 12.40Q26.56 12.64 27.23 12.64ZM39.11 14.23L39.11 14.23Q37.88 14.23 37.04 13.76Q36.20 13.29 35.77 12.45Q35.33 11.60 35.33 10.46L35.33 10.46L35.33 5.24L37.03 5.24L37.03 10.56Q37.03 11.18 37.27 11.65Q37.51 12.13 37.97 12.39Q38.44 12.64 39.11 12.64L39.11 12.64Q39.77 12.64 40.23 12.39Q40.69 12.13 40.93 11.66Q41.16 11.19 41.16 10.56L41.16 10.56L41.16 5.24L42.86 5.24L42.86 10.46Q42.86 11.60 42.44 12.45Q42.01 13.29 41.17 13.76Q40.33 14.23 39.11 14.23ZM48.56 14L46.86 14L46.86 5.18L48.56 5.18L48.56 14ZM54.20 14L52.21 14L49.52 10.18L51.43 10.18L54.20 14ZM50.11 11.07L48.06 11.07L48.06 9.69L50.29 9.69Q50.76 9.69 51.10 9.50Q51.44 9.31 51.63 8.96Q51.82 8.61 51.82 8.17L51.82 8.17Q51.82 7.71 51.63 7.36Q51.44 7.02 51.10 6.82Q50.76 6.63 50.29 6.63L50.29 6.63L48.06 6.63L48.06 5.18L50.11 5.18Q51.16 5.18 51.94 5.49Q52.71 5.80 53.13 6.44Q53.55 7.08 53.55 8.04L53.55 8.04L53.55 8.23Q53.55 9.20 53.13 9.82Q52.70 10.45 51.93 10.76Q51.16 11.07 50.11 11.07L50.11 11.07ZM61.32 14.23L61.32 14.23Q60.14 14.23 59.28 13.81Q58.43 13.39 57.90 12.72Q57.36 12.04 57.11 11.25Q56.86 10.46 56.86 9.73L56.86 9.73L56.86 9.46Q56.86 8.65 57.12 7.86Q57.38 7.06 57.92 6.42Q58.46 5.77 59.29 5.38Q60.12 4.99 61.26 4.99L61.26 4.99Q62.45 4.99 63.33 5.41Q64.22 5.84 64.74 6.61Q65.27 7.39 65.38 8.42L65.38 8.42L63.66 8.42Q63.57 7.82 63.24 7.41Q62.91 6.99 62.40 6.78Q61.90 6.57 61.26 6.57L61.26 6.57Q60.62 6.57 60.11 6.79Q59.61 7.02 59.27 7.42Q58.94 7.83 58.76 8.38Q58.59 8.94 58.59 9.61L58.59 9.61Q58.59 10.26 58.76 10.81Q58.94 11.36 59.28 11.77Q59.63 12.19 60.14 12.42Q60.65 12.64 61.32 12.64L61.32 12.64Q62.31 12.64 62.99 12.16Q63.66 11.67 63.81 10.80L63.81 10.80L65.52 10.80Q65.40 11.73 64.89 12.51Q64.37 13.29 63.47 13.76Q62.57 14.23 61.32 14.23ZM70.63 14L68.96 14L68.96 5.24L70.63 5.24L70.63 14ZM74.36 14L70.39 14L70.39 12.56L74.36 12.56L74.36 14ZM74.05 10.27L70.39 10.27L70.39 8.83L74.05 8.83L74.05 10.27ZM74.27 6.68L70.39 6.68L70.39 5.24L74.27 5.24L74.27 6.68ZM81.03 14.23L81.03 14.23Q79.87 14.23 79.07 13.86Q78.27 13.48 77.85 12.83Q77.43 12.18 77.43 11.35L77.43 11.35L79.10 11.35Q79.10 11.70 79.29 12.03Q79.48 12.36 79.91 12.56Q80.34 12.76 81.03 12.76L81.03 12.76Q81.66 12.76 82.08 12.58Q82.50 12.40 82.70 12.11Q82.90 11.82 82.90 11.44L82.90 11.44Q82.90 10.98 82.51 10.69Q82.11 10.41 81.28 10.34L81.28 10.34L80.52 10.28Q79.26 10.17 78.51 9.49Q77.76 8.82 77.76 7.70L77.76 7.70Q77.76 6.86 78.15 6.25Q78.55 5.65 79.26 5.32Q79.98 4.99 80.94 4.99L80.94 4.99Q81.93 4.99 82.65 5.34Q83.37 5.68 83.77 6.31Q84.16 6.94 84.16 7.80L84.16 7.80L82.50 7.80Q82.50 7.44 82.32 7.13Q82.15 6.82 81.81 6.64Q81.46 6.45 80.94 6.45L80.94 6.45Q80.43 6.45 80.10 6.62Q79.76 6.79 79.59 7.08Q79.42 7.36 79.42 7.70L79.42 7.70Q79.42 8.11 79.72 8.41Q80.02 8.72 80.67 8.77L80.67 8.77L81.44 8.84Q82.38 8.91 83.08 9.24Q83.79 9.56 84.18 10.11Q84.57 10.66 84.57 11.44L84.57 11.44Q84.57 12.27 84.14 12.90Q83.71 13.53 82.91 13.88Q82.11 14.23 81.03 14.23Z" fill="#0A1422"></path><path d="M525.83 11.31L524.27 11.31L524.27 9.84L525.97 9.84Q526.49 9.84 526.84 9.63Q527.20 9.43 527.38 9.07Q527.57 8.71 527.57 8.24L527.57 8.24Q527.57 7.77 527.38 7.41Q527.20 7.05 526.84 6.85Q526.49 6.66 525.97 6.66L525.97 6.66L524.27 6.66L524.27 5.18L525.83 5.18Q526.93 5.18 527.71 5.54Q528.48 5.90 528.89 6.57Q529.30 7.23 529.30 8.14L529.30 8.14L529.30 8.34Q529.30 9.25 528.89 9.91Q528.48 10.58 527.71 10.95Q526.93 11.31 525.83 11.31L525.83 11.31ZM524.51 14L522.80 14L522.80 5.18L524.51 5.18L524.51 14ZM534.40 14L532.70 14L532.70 5.18L534.40 5.18L534.40 14ZM540.04 14L538.05 14L535.36 10.18L537.27 10.18L540.04 14ZM535.95 11.07L533.90 11.07L533.90 9.69L536.13 9.69Q536.60 9.69 536.94 9.50Q537.28 9.31 537.48 8.96Q537.67 8.61 537.67 8.17L537.67 8.17Q537.67 7.71 537.48 7.36Q537.28 7.02 536.94 6.82Q536.60 6.63 536.13 6.63L536.13 6.63L533.90 6.63L533.90 5.18L535.95 5.18Q537.01 5.18 537.78 5.49Q538.56 5.80 538.98 6.44Q539.40 7.08 539.40 8.04L539.40 8.04L539.40 8.23Q539.40 9.20 538.97 9.82Q538.54 10.45 537.78 10.76Q537.01 11.07 535.95 11.07L535.95 11.07ZM547.34 14.23L547.34 14.23Q546.15 14.23 545.28 13.81Q544.41 13.39 543.84 12.71Q543.27 12.03 542.99 11.25Q542.70 10.46 542.70 9.73L542.70 9.73L542.70 9.46Q542.70 8.66 542.99 7.86Q543.28 7.06 543.86 6.42Q544.44 5.77 545.31 5.38Q546.17 4.99 547.34 4.99L547.34 4.99Q548.49 4.99 549.35 5.38Q550.22 5.77 550.80 6.42Q551.38 7.06 551.67 7.86Q551.96 8.66 551.96 9.46L551.96 9.46L551.96 9.73Q551.96 10.46 551.67 11.25Q551.39 12.03 550.82 12.71Q550.25 13.39 549.38 13.81Q548.51 14.23 547.34 14.23ZM547.34 12.64L547.34 12.64Q548.01 12.64 548.54 12.40Q549.08 12.16 549.45 11.74Q549.83 11.31 550.03 10.77Q550.23 10.22 550.23 9.61L550.23 9.61Q550.23 8.95 550.03 8.40Q549.83 7.84 549.45 7.44Q549.08 7.03 548.54 6.80Q548.00 6.57 547.34 6.57L547.34 6.57Q546.66 6.57 546.12 6.80Q545.58 7.03 545.21 7.44Q544.83 7.84 544.63 8.40Q544.43 8.95 544.43 9.61L544.43 9.61Q544.43 10.22 544.63 10.77Q544.83 11.31 545.21 11.74Q545.58 12.16 546.12 12.40Q546.66 12.64 547.34 12.64ZM560.24 14L557.44 14L554.64 5.24L556.40 5.24L558.72 12.82L558.22 12.58L559.51 12.58L559.00 12.82L561.13 5.24L562.84 5.24L560.24 14ZM567.94 14L566.24 14L566.24 5.24L567.94 5.24L567.94 14ZM575.30 14.05L573.59 14.05L573.59 12.46L575.40 12.46Q576.09 12.46 576.62 12.25Q577.16 12.04 577.53 11.66Q577.90 11.28 578.10 10.75Q578.30 10.23 578.30 9.60L578.30 9.60Q578.30 8.94 578.10 8.41Q577.90 7.89 577.53 7.52Q577.16 7.15 576.62 6.96Q576.09 6.76 575.40 6.76L575.40 6.76L573.59 6.76L573.59 5.18L575.30 5.18Q576.48 5.18 577.37 5.53Q578.26 5.88 578.85 6.48Q579.44 7.09 579.73 7.86Q580.02 8.64 580.02 9.46L580.02 9.46L580.02 9.73Q580.02 10.52 579.73 11.29Q579.44 12.06 578.85 12.68Q578.26 13.30 577.37 13.68Q576.48 14.05 575.30 14.05L575.30 14.05ZM573.83 14.05L572.13 14.05L572.13 5.18L573.83 5.18L573.83 14.05ZM585.22 14L583.55 14L583.55 5.24L585.22 5.24L585.22 14ZM588.95 14L584.98 14L584.98 12.56L588.95 12.56L588.95 14ZM588.64 10.27L584.98 10.27L584.98 8.83L588.64 8.83L588.64 10.27ZM588.85 6.68L584.98 6.68L584.98 5.24L588.85 5.24L588.85 6.68ZM594.40 14L592.70 14L592.70 5.18L594.40 5.18L594.40 14ZM600.04 14L598.05 14L595.36 10.18L597.27 10.18L600.04 14ZM595.95 11.07L593.90 11.07L593.90 9.69L596.13 9.69Q596.60 9.69 596.94 9.50Q597.28 9.31 597.48 8.96Q597.67 8.61 597.67 8.17L597.67 8.17Q597.67 7.71 597.48 7.36Q597.28 7.02 596.94 6.82Q596.60 6.63 596.13 6.63L596.13 6.63L593.90 6.63L593.90 5.18L595.95 5.18Q597.01 5.18 597.78 5.49Q598.56 5.80 598.98 6.44Q599.40 7.08 599.40 8.04L599.40 8.04L599.40 8.23Q599.40 9.20 598.97 9.82Q598.54 10.45 597.78 10.76Q597.01 11.07 595.95 11.07L595.95 11.07ZM606.26 14.23L606.26 14.23Q605.09 14.23 604.29 13.86Q603.50 13.48 603.08 12.83Q602.66 12.18 602.66 11.35L602.66 11.35L604.32 11.35Q604.32 11.70 604.52 12.03Q604.71 12.36 605.13 12.56Q605.56 12.76 606.26 12.76L606.26 12.76Q606.88 12.76 607.30 12.58Q607.72 12.40 607.92 12.11Q608.13 11.82 608.13 11.44L608.13 11.44Q608.13 10.98 607.73 10.69Q607.34 10.41 606.51 10.34L606.51 10.34L605.74 10.28Q604.48 10.17 603.73 9.49Q602.98 8.82 602.98 7.70L602.98 7.70Q602.98 6.86 603.38 6.25Q603.77 5.65 604.49 5.32Q605.20 4.99 606.16 4.99L606.16 4.99Q607.16 4.99 607.88 5.34Q608.60 5.68 608.99 6.31Q609.39 6.94 609.39 7.80L609.39 7.80L607.72 7.80Q607.72 7.44 607.55 7.13Q607.37 6.82 607.03 6.64Q606.69 6.45 606.16 6.45L606.16 6.45Q605.66 6.45 605.32 6.62Q604.98 6.79 604.82 7.08Q604.65 7.36 604.65 7.70L604.65 7.70Q604.65 8.11 604.95 8.41Q605.25 8.72 605.90 8.77L605.90 8.77L606.66 8.84Q607.60 8.91 608.31 9.24Q609.02 9.56 609.41 10.11Q609.80 10.66 609.80 11.44L609.80 11.44Q609.80 12.27 609.36 12.90Q608.93 13.53 608.13 13.88Q607.34 14.23 606.26 14.23Z" fill="#0A1422"></path><path d="M43.65 59.25L41.40 59.25Q40.34 59.25 39.74 58.68Q39.15 58.11 39.15 57.08L39.15 57.08L39.15 52.23L36.83 52.23L36.83 51L39.15 51L39.15 48.67L40.50 48.67L40.50 51L43.80 51L43.80 52.23L40.50 52.23L40.50 57.08Q40.50 58.02 41.40 58.02L41.40 58.02L43.65 58.02L43.65 59.25ZM48.02 59.25L46.66 59.25L46.66 51L47.98 51L47.98 52.58L48.30 52.58L47.87 53.55Q47.87 52.22 48.44 51.53Q49.02 50.85 50.16 50.85L50.16 50.85Q51.47 50.85 52.24 51.67Q53.01 52.48 53.01 53.88L53.01 53.88L53.01 54.38L51.66 54.38L51.66 54Q51.66 53.02 51.19 52.51Q50.72 51.99 49.84 51.99L49.84 51.99Q48.99 51.99 48.50 52.52Q48.02 53.04 48.02 54L48.02 54L48.02 59.25ZM57.78 59.40L57.78 59.40Q56.48 59.40 55.73 58.73Q54.98 58.06 54.98 56.92L54.98 56.92Q54.98 55.77 55.73 55.11Q56.48 54.45 57.75 54.45L57.75 54.45L60.30 54.45L60.30 53.63Q60.30 52.86 59.84 52.45Q59.38 52.03 58.55 52.03L58.55 52.03Q57.81 52.03 57.31 52.34Q56.82 52.65 56.74 53.17L56.74 53.17L55.40 53.17Q55.53 52.11 56.40 51.48Q57.27 50.85 58.58 50.85L58.58 50.85Q60 50.85 60.83 51.59Q61.65 52.32 61.65 53.58L61.65 53.58L61.65 59.25L60.33 59.25L60.33 57.67L60.10 57.67L60.33 57.45Q60.33 58.35 59.63 58.88Q58.94 59.40 57.78 59.40ZM58.11 58.34L58.11 58.34Q59.07 58.34 59.69 57.85Q60.30 57.38 60.30 56.63L60.30 56.63L60.30 55.45L57.78 55.45Q57.10 55.45 56.72 55.83Q56.33 56.20 56.33 56.85L56.33 56.85Q56.33 57.54 56.80 57.94Q57.27 58.34 58.11 58.34ZM67.50 59.40L67.50 59.40Q66.53 59.40 65.80 59.01Q65.07 58.62 64.67 57.91Q64.28 57.20 64.28 56.25L64.28 56.25L64.28 54Q64.28 53.04 64.67 52.34Q65.07 51.63 65.80 51.24Q66.53 50.85 67.50 50.85L67.50 50.85Q68.47 50.85 69.20 51.24Q69.93 51.63 70.33 52.34Q70.72 53.04 70.72 54L70.72 54L70.72 55.45L65.59 55.45L65.59 56.25Q65.59 57.23 66.09 57.74Q66.58 58.26 67.50 58.26L67.50 58.26Q68.28 58.26 68.76 57.98Q69.24 57.70 69.34 57.15L69.34 57.15L70.69 57.15Q70.56 58.19 69.68 58.79Q68.81 59.40 67.50 59.40ZM69.51 54.44L69.41 54.55L69.41 54Q69.41 53.02 68.92 52.50Q68.43 51.98 67.50 51.98L67.50 51.98Q66.58 51.98 66.09 52.50Q65.59 53.02 65.59 54L65.59 54L65.59 54.44L69.51 54.44ZM76.65 59.25L75.30 59.25L75.30 53.05L72.90 53.05L72.90 51.83L75.30 51.83L75.30 50.40Q75.30 49.42 75.92 48.86Q76.53 48.30 77.61 48.30L77.61 48.30L80.03 48.30L80.03 49.53L77.61 49.53Q77.14 49.53 76.90 49.75Q76.65 49.97 76.65 50.40L76.65 50.40L76.65 51.83L80.03 51.83L80.03 53.05L76.65 53.05L76.65 59.25ZM89.33 59.25L82.28 59.25L82.28 58.02L85.20 58.02L85.20 52.23L82.65 52.23L82.65 51L86.55 51L86.55 58.02L89.33 58.02L89.33 59.25ZM85.72 49.52L85.72 49.52Q85.23 49.52 84.94 49.26Q84.66 49.01 84.66 48.57L84.66 48.57Q84.66 48.12 84.94 47.86Q85.23 47.59 85.72 47.59L85.72 47.59Q86.22 47.59 86.50 47.86Q86.79 48.12 86.79 48.57L86.79 48.57Q86.79 49.01 86.50 49.26Q86.22 49.52 85.72 49.52ZM92.78 59.25L91.42 59.25L91.42 48.30L92.78 48.30L92.78 54.41L94.36 54.41L96.77 51L98.31 51L95.53 54.93L98.36 59.25L96.78 59.25L94.38 55.58L92.78 55.58L92.78 59.25Z" fill="#0A1422"></path><line x1="113" y1="54" x2="223" y2="138" stroke="#0E93B0" stroke-width="1.5" opacity="0.45"></line><path d="M58.56 87.40L58.56 87.40Q57.57 87.40 56.83 87.03Q56.09 86.65 55.68 85.94Q55.27 85.22 55.27 84.25L55.27 84.25L55.27 82Q55.27 81.01 55.68 80.31Q56.09 79.60 56.83 79.22Q57.57 78.85 58.56 78.85L58.56 78.85Q59.98 78.85 60.85 79.61Q61.73 80.38 61.77 81.70L61.77 81.70L60.42 81.70Q60.38 80.91 59.89 80.48Q59.40 80.05 58.56 80.05L58.56 80.05Q57.67 80.05 57.15 80.55Q56.63 81.06 56.63 81.98L56.63 81.98L56.63 84.25Q56.63 85.18 57.15 85.69Q57.67 86.20 58.56 86.20L58.56 86.20Q59.40 86.20 59.89 85.77Q60.38 85.33 60.42 84.55L60.42 84.55L61.77 84.55Q61.73 85.87 60.85 86.64Q59.98 87.40 58.56 87.40ZM66.78 87.40L66.78 87.40Q65.47 87.40 64.72 86.73Q63.98 86.06 63.98 84.92L63.98 84.92Q63.98 83.77 64.72 83.11Q65.47 82.45 66.75 82.45L66.75 82.45L69.30 82.45L69.30 81.63Q69.30 80.86 68.84 80.45Q68.39 80.03 67.55 80.03L67.55 80.03Q66.81 80.03 66.31 80.34Q65.82 80.65 65.75 81.17L65.75 81.17L64.39 81.17Q64.53 80.11 65.40 79.48Q66.27 78.85 67.58 78.85L67.58 78.85Q69 78.85 69.83 79.58Q70.65 80.32 70.65 81.58L70.65 81.58L70.65 87.25L69.33 87.25L69.33 85.67L69.11 85.67L69.33 85.45Q69.33 86.35 68.63 86.88Q67.94 87.40 66.78 87.40ZM67.11 86.33L67.11 86.33Q68.07 86.33 68.69 85.86Q69.30 85.38 69.30 84.63L69.30 84.63L69.30 83.45L66.78 83.45Q66.11 83.45 65.72 83.83Q65.33 84.20 65.33 84.85L65.33 84.85Q65.33 85.54 65.80 85.94Q66.27 86.33 67.11 86.33ZM76.02 87.40L76.02 87.40Q74.79 87.40 74.03 86.58Q73.28 85.75 73.28 84.34L73.28 84.34L73.28 81.92Q73.28 80.50 74.03 79.67Q74.78 78.85 76.02 78.85L76.02 78.85Q77.04 78.85 77.66 79.41Q78.27 79.96 78.27 80.89L78.27 80.89L78 80.58L78.30 80.58L78.27 78.70L78.27 76.30L79.62 76.30L79.62 87.25L78.27 87.25L78.27 85.67L78 85.67L78.27 85.36Q78.27 86.31 77.66 86.85Q77.04 87.40 76.02 87.40ZM76.47 86.23L76.47 86.23Q77.31 86.23 77.79 85.70Q78.27 85.18 78.27 84.25L78.27 84.25L78.27 82Q78.27 81.07 77.79 80.55Q77.31 80.02 76.47 80.02L76.47 80.02Q75.61 80.02 75.12 80.53Q74.63 81.04 74.63 82L74.63 82L74.63 84.25Q74.63 85.21 75.12 85.72Q75.61 86.23 76.47 86.23ZM85.02 87.40L85.02 87.40Q83.79 87.40 83.03 86.58Q82.28 85.75 82.28 84.34L82.28 84.34L82.28 81.92Q82.28 80.50 83.03 79.67Q83.78 78.85 85.02 78.85L85.02 78.85Q86.04 78.85 86.66 79.41Q87.27 79.96 87.27 80.89L87.27 80.89L87 80.58L87.30 80.58L87.27 78.70L87.27 76.30L88.62 76.30L88.62 87.25L87.27 87.25L87.27 85.67L87 85.67L87.27 85.36Q87.27 86.31 86.66 86.85Q86.04 87.40 85.02 87.40ZM85.47 86.23L85.47 86.23Q86.31 86.23 86.79 85.70Q87.27 85.18 87.27 84.25L87.27 84.25L87.27 82Q87.27 81.07 86.79 80.55Q86.31 80.02 85.47 80.02L85.47 80.02Q84.61 80.02 84.12 80.53Q83.63 81.04 83.63 82L83.63 82L83.63 84.25Q83.63 85.21 84.12 85.72Q84.61 86.23 85.47 86.23ZM94.11 89.95L92.67 89.95L93.89 86.74L90.83 79L92.33 79L94.25 84.10Q94.35 84.36 94.44 84.71Q94.53 85.06 94.59 85.30L94.59 85.30Q94.65 85.06 94.74 84.71Q94.83 84.36 94.92 84.10L94.92 84.10L96.72 79L98.17 79L94.11 89.95Z" fill="#0A1422"></path><line x1="113" y1="82" x2="223" y2="138" stroke="#0E93B0" stroke-width="1.5" opacity="0.45"></line><path d="M2.73 115.25L1.38 115.25L1.38 107L2.73 107L2.73 108.58L3.01 108.58L2.73 108.89Q2.73 107.92 3.31 107.38Q3.90 106.85 4.93 106.85L4.93 106.85Q6.18 106.85 6.92 107.61Q7.65 108.38 7.65 109.70L7.65 109.70L7.65 115.25L6.30 115.25L6.30 109.85Q6.30 108.97 5.83 108.49Q5.35 108.02 4.54 108.02L4.54 108.02Q3.71 108.02 3.22 108.53Q2.73 109.04 2.73 110L2.73 110L2.73 115.25ZM14.02 117.95L11.41 117.95L11.41 116.72L14.04 116.72Q14.67 116.72 14.96 116.44Q15.25 116.15 15.25 115.55L15.25 115.55L15.25 114.50L15.29 113L15.02 113L15.27 112.78Q15.27 113.67 14.67 114.20Q14.07 114.72 13.06 114.72L13.06 114.72Q11.79 114.72 11.05 113.89Q10.32 113.06 10.32 111.65L10.32 111.65L10.32 109.91Q10.32 108.50 11.05 107.67Q11.79 106.85 13.06 106.85L13.06 106.85Q14.07 106.85 14.67 107.38Q15.27 107.90 15.27 108.80L15.27 108.80L15.02 108.58L15.27 108.58L15.27 107L16.61 107L16.61 115.55Q16.61 116.66 15.92 117.31Q15.24 117.95 14.02 117.95L14.02 117.95ZM13.47 113.56L13.47 113.56Q14.31 113.56 14.79 113.03Q15.27 112.50 15.27 111.58L15.27 111.58L15.27 110Q15.27 109.07 14.79 108.55Q14.31 108.02 13.47 108.02L13.47 108.02Q12.62 108.02 12.14 108.53Q11.67 109.04 11.67 110L11.67 110L11.67 111.58Q11.67 112.53 12.14 113.05Q12.62 113.56 13.47 113.56ZM26.32 115.25L19.27 115.25L19.27 114.02L22.20 114.02L22.20 108.23L19.65 108.23L19.65 107L23.55 107L23.55 114.02L26.32 114.02L26.32 115.25ZM22.73 105.52L22.73 105.52Q22.23 105.52 21.95 105.26Q21.66 105.00 21.66 104.57L21.66 104.57Q21.66 104.12 21.95 103.86Q22.23 103.59 22.73 103.59L22.73 103.59Q23.22 103.59 23.50 103.86Q23.79 104.12 23.79 104.57L23.79 104.57Q23.79 105.00 23.50 105.26Q23.22 105.52 22.73 105.52ZM29.73 115.25L28.38 115.25L28.38 107L29.73 107L29.73 108.58L30.02 108.58L29.73 108.89Q29.73 107.92 30.32 107.38Q30.90 106.85 31.93 106.85L31.93 106.85Q33.18 106.85 33.91 107.61Q34.65 108.38 34.65 109.70L34.65 109.70L34.65 115.25L33.30 115.25L33.30 109.85Q33.30 108.97 32.83 108.49Q32.35 108.02 31.55 108.02L31.55 108.02Q30.70 108.02 30.22 108.53Q29.73 109.04 29.73 110L29.73 110L29.73 115.25ZM38.33 115.25L36.75 115.25L39.67 111.00L36.93 107L38.52 107L40.16 109.55Q40.26 109.72 40.36 109.91Q40.45 110.11 40.52 110.22L40.52 110.22Q40.56 110.11 40.66 109.91Q40.76 109.72 40.86 109.55L40.86 109.55L42.51 107L44.09 107L41.34 111.02L44.25 115.25L42.66 115.25L40.89 112.55Q40.78 112.39 40.69 112.17Q40.59 111.95 40.52 111.81L40.52 111.81Q40.45 111.95 40.34 112.17Q40.23 112.39 40.11 112.55L40.11 112.55L38.33 115.25ZM51.90 110.90L47.10 110.90L47.10 109.70L51.90 109.70L51.90 110.90ZM56.73 117.95L55.38 117.95L55.38 107L56.73 107L56.73 108.58L57 108.58L56.73 108.89Q56.73 107.94 57.35 107.40Q57.98 106.85 58.99 106.85L58.99 106.85Q60.24 106.85 60.98 107.67Q61.73 108.48 61.73 109.91L61.73 109.91L61.73 112.33Q61.73 113.27 61.39 113.96Q61.05 114.65 60.44 115.03Q59.84 115.40 58.99 115.40L58.99 115.40Q57.99 115.40 57.36 114.84Q56.73 114.29 56.73 113.36L56.73 113.36L57 113.67L56.70 113.67L56.73 115.55L56.73 117.95ZM58.55 114.23L58.55 114.23Q59.40 114.23 59.89 113.72Q60.38 113.21 60.38 112.25L60.38 112.25L60.38 110Q60.38 109.04 59.89 108.53Q59.40 108.02 58.55 108.02L58.55 108.02Q57.72 108.02 57.23 108.55Q56.73 109.07 56.73 110L56.73 110L56.73 112.25Q56.73 113.18 57.23 113.70Q57.72 114.23 58.55 114.23ZM66.02 115.25L64.67 115.25L64.67 107L65.98 107L65.98 108.58L66.30 108.58L65.86 109.55Q65.86 108.22 66.44 107.53Q67.02 106.85 68.16 106.85L68.16 106.85Q69.47 106.85 70.24 107.67Q71.01 108.48 71.01 109.88L71.01 109.88L71.01 110.38L69.66 110.38L69.66 110Q69.66 109.03 69.19 108.51Q68.72 107.99 67.84 107.99L67.84 107.99Q66.99 107.99 66.50 108.52Q66.02 109.04 66.02 110L66.02 110L66.02 115.25ZM76.50 115.37L76.50 115.37Q75.51 115.37 74.79 115.00Q74.07 114.62 73.67 113.91Q73.28 113.19 73.28 112.22L73.28 112.22L73.28 110.03Q73.28 109.04 73.67 108.33Q74.07 107.63 74.79 107.25Q75.51 106.88 76.50 106.88L76.50 106.88Q77.49 106.88 78.21 107.25Q78.93 107.63 79.33 108.33Q79.72 109.04 79.72 110.02L79.72 110.02L79.72 112.22Q79.72 113.19 79.33 113.91Q78.93 114.62 78.21 115.00Q77.49 115.37 76.50 115.37ZM76.50 114.17L76.50 114.17Q77.39 114.17 77.88 113.67Q78.38 113.18 78.38 112.22L78.38 112.22L78.38 110.03Q78.38 109.07 77.88 108.58Q77.39 108.08 76.50 108.08L76.50 108.08Q75.63 108.08 75.13 108.58Q74.63 109.07 74.63 110.03L74.63 110.03L74.63 112.22Q74.63 113.18 75.13 113.67Q75.63 114.17 76.50 114.17ZM83.33 115.25L81.75 115.25L84.67 111.00L81.93 107L83.52 107L85.16 109.55Q85.26 109.72 85.36 109.91Q85.45 110.11 85.52 110.22L85.52 110.22Q85.56 110.11 85.66 109.91Q85.75 109.72 85.86 109.55L85.86 109.55L87.51 107L89.08 107L86.34 111.02L89.25 115.25L87.66 115.25L85.89 112.55Q85.78 112.39 85.69 112.17Q85.59 111.95 85.52 111.81L85.52 111.81Q85.45 111.95 85.34 112.17Q85.23 112.39 85.11 112.55L85.11 112.55L83.33 115.25ZM94.11 117.95L92.67 117.95L93.89 114.74L90.83 107L92.33 107L94.25 112.10Q94.35 112.36 94.44 112.71Q94.53 113.06 94.59 113.30L94.59 113.30Q94.65 113.06 94.74 112.71Q94.83 112.36 94.92 112.10L94.92 112.10L96.72 107L98.17 107L94.11 117.95Z" fill="#0A1422"></path><line x1="113" y1="110" x2="223" y2="138" stroke="#0E93B0" stroke-width="1.5" opacity="0.45"></line><path d="M22.02 143.40L22.02 143.40Q20.79 143.40 20.03 142.57Q19.27 141.75 19.27 140.34L19.27 140.34L19.27 137.93Q19.27 136.50 20.02 135.68Q20.77 134.85 22.02 134.85L22.02 134.85Q23.04 134.85 23.66 135.41Q24.27 135.96 24.27 136.89L24.27 136.89L24 136.57L24.30 136.57L24.27 134.70L24.27 132.30L25.62 132.30L25.62 143.25L24.27 143.25L24.27 141.68L24 141.68L24.27 141.36Q24.27 142.31 23.66 142.85Q23.04 143.40 22.02 143.40ZM22.47 142.23L22.47 142.23Q23.31 142.23 23.79 141.71Q24.27 141.18 24.27 140.25L24.27 140.25L24.27 138Q24.27 137.07 23.79 136.54Q23.31 136.02 22.47 136.02L22.47 136.02Q21.61 136.02 21.12 136.53Q20.63 137.04 20.63 138L20.63 138L20.63 140.25Q20.63 141.21 21.12 141.72Q21.61 142.23 22.47 142.23ZM29.73 143.25L28.38 143.25L28.38 135L29.73 135L29.73 136.57L30.02 136.57L29.73 136.89Q29.73 135.91 30.32 135.38Q30.90 134.85 31.93 134.85L31.93 134.85Q33.18 134.85 33.91 135.62Q34.65 136.38 34.65 137.70L34.65 137.70L34.65 143.25L33.30 143.25L33.30 137.85Q33.30 136.97 32.83 136.49Q32.35 136.02 31.55 136.02L31.55 136.02Q30.70 136.02 30.22 136.53Q29.73 137.04 29.73 138L29.73 138L29.73 143.25ZM40.88 143.37L40.24 143.37Q39.41 143.37 38.78 143.11Q38.16 142.84 37.79 142.37Q37.42 141.88 37.35 141.22L37.35 141.22L38.70 141.22Q38.79 141.66 39.19 141.91Q39.59 142.17 40.24 142.17L40.24 142.17L40.88 142.17Q41.67 142.17 42.06 141.85Q42.45 141.53 42.45 140.99L42.45 140.99Q42.45 140.46 42.10 140.15Q41.74 139.84 41.05 139.74L41.05 139.74L39.95 139.56Q38.73 139.35 38.14 138.80Q37.55 138.25 37.55 137.21L37.55 137.21Q37.55 136.09 38.25 135.49Q38.95 134.88 40.37 134.88L40.37 134.88L40.94 134.88Q42.12 134.88 42.84 135.44Q43.56 135.99 43.71 136.94L43.71 136.94L42.36 136.94Q42.27 136.54 41.91 136.31Q41.55 136.08 40.94 136.08L40.94 136.08L40.37 136.08Q39.60 136.08 39.25 136.37Q38.90 136.65 38.90 137.22L38.90 137.22Q38.90 137.73 39.20 137.97Q39.49 138.21 40.14 138.31L40.14 138.31L41.25 138.50Q42.59 138.71 43.19 139.28Q43.80 139.84 43.80 140.93L43.80 140.93Q43.80 142.06 43.07 142.72Q42.34 143.37 40.88 143.37L40.88 143.37ZM48.33 143.25L46.84 143.25L45.52 135L46.73 135L47.55 140.85Q47.59 141.18 47.65 141.56Q47.70 141.94 47.73 142.20L47.73 142.20Q47.76 141.94 47.83 141.56Q47.90 141.18 47.94 140.85L47.94 140.85L48.85 135L50.14 135L51.06 140.85Q51.10 141.18 51.17 141.56Q51.24 141.94 51.27 142.20L51.27 142.20Q51.30 141.94 51.37 141.56Q51.44 141.18 51.48 140.85L51.48 140.85L52.34 135L53.48 135L52.09 143.25L50.61 143.25L49.73 137.55Q49.66 137.13 49.59 136.71Q49.52 136.29 49.48 136.05L49.48 136.05Q49.45 136.29 49.39 136.71Q49.34 137.13 49.26 137.55L49.26 137.55L48.33 143.25ZM58.50 143.40L58.50 143.40Q57.52 143.40 56.80 143.01Q56.07 142.62 55.67 141.91Q55.27 141.19 55.27 140.25L55.27 140.25L55.27 138Q55.27 137.04 55.67 136.34Q56.07 135.63 56.80 135.24Q57.52 134.85 58.50 134.85L58.50 134.85Q59.48 134.85 60.20 135.24Q60.93 135.63 61.33 136.34Q61.73 137.04 61.73 138L61.73 138L61.73 139.46L56.59 139.46L56.59 140.25Q56.59 141.22 57.09 141.74Q57.59 142.26 58.50 142.26L58.50 142.26Q59.28 142.26 59.76 141.98Q60.24 141.71 60.34 141.15L60.34 141.15L61.70 141.15Q61.56 142.19 60.68 142.79Q59.80 143.40 58.50 143.40ZM60.51 138.44L60.41 138.56L60.41 138Q60.41 137.03 59.92 136.50Q59.43 135.97 58.50 135.97L58.50 135.97Q57.59 135.97 57.09 136.50Q56.59 137.03 56.59 138L56.59 138L56.59 138.44L60.51 138.44ZM66.78 143.40L66.78 143.40Q65.47 143.40 64.72 142.73Q63.98 142.06 63.98 140.93L63.98 140.93Q63.98 139.77 64.72 139.11Q65.47 138.45 66.75 138.45L66.75 138.45L69.30 138.45L69.30 137.63Q69.30 136.86 68.84 136.45Q68.39 136.03 67.55 136.03L67.55 136.03Q66.81 136.03 66.31 136.34Q65.82 136.65 65.75 137.18L65.75 137.18L64.39 137.18Q64.53 136.11 65.40 135.48Q66.27 134.85 67.58 134.85L67.58 134.85Q69 134.85 69.83 135.59Q70.65 136.32 70.65 137.58L70.65 137.58L70.65 143.25L69.33 143.25L69.33 141.68L69.11 141.68L69.33 141.45Q69.33 142.35 68.63 142.88Q67.94 143.40 66.78 143.40ZM67.11 142.34L67.11 142.34Q68.07 142.34 68.69 141.85Q69.30 141.38 69.30 140.63L69.30 140.63L69.30 139.46L66.78 139.46Q66.11 139.46 65.72 139.83Q65.33 140.21 65.33 140.85L65.33 140.85Q65.33 141.54 65.80 141.94Q66.27 142.34 67.11 142.34ZM77.42 143.25L75.58 143.25L72.83 135L74.20 135L76.03 140.55Q76.20 141.04 76.33 141.50Q76.47 141.96 76.53 142.22L76.53 142.22Q76.61 141.96 76.74 141.50Q76.88 141.04 77.03 140.55L77.03 140.55L78.81 135L80.17 135L77.42 143.25ZM85.50 143.40L85.50 143.40Q84.53 143.40 83.80 143.01Q83.07 142.62 82.67 141.91Q82.28 141.19 82.28 140.25L82.28 140.25L82.28 138Q82.28 137.04 82.67 136.34Q83.07 135.63 83.80 135.24Q84.53 134.85 85.50 134.85L85.50 134.85Q86.47 134.85 87.20 135.24Q87.93 135.63 88.33 136.34Q88.72 137.04 88.72 138L88.72 138L88.72 139.46L83.59 139.46L83.59 140.25Q83.59 141.22 84.09 141.74Q84.58 142.26 85.50 142.26L85.50 142.26Q86.28 142.26 86.76 141.98Q87.24 141.71 87.34 141.15L87.34 141.15L88.69 141.15Q88.56 142.19 87.68 142.79Q86.81 143.40 85.50 143.40ZM87.51 138.44L87.41 138.56L87.41 138Q87.41 137.03 86.92 136.50Q86.43 135.97 85.50 135.97L85.50 135.97Q84.58 135.97 84.09 136.50Q83.59 137.03 83.59 138L83.59 138L83.59 138.44L87.51 138.44ZM93.02 143.25L91.67 143.25L91.67 135L92.98 135L92.98 136.57L93.30 136.57L92.86 137.55Q92.86 136.22 93.44 135.53Q94.02 134.85 95.16 134.85L95.16 134.85Q96.47 134.85 97.24 135.67Q98.01 136.49 98.01 137.88L98.01 137.88L98.01 138.38L96.66 138.38L96.66 138Q96.66 137.03 96.19 136.51Q95.72 135.99 94.84 135.99L94.84 135.99Q93.99 135.99 93.50 136.51Q93.02 137.04 93.02 138L93.02 138L93.02 143.25Z" fill="#0A1422"></path><line x1="113" y1="138" x2="223" y2="138" stroke="#0E93B0" stroke-width="1.5" opacity="0.45"></line><path d="M11.78 171.25L10.43 171.25L10.43 160.30L11.78 160.30L11.78 166.41L13.37 166.41L15.77 163L17.31 163L14.54 166.93L17.36 171.25L15.78 171.25L13.38 167.57L11.78 167.57L11.78 171.25ZM22.48 171.40L22.48 171.40Q21.06 171.40 20.20 170.55Q19.35 169.71 19.35 168.25L19.35 168.25L19.35 163L20.70 163L20.70 168.25Q20.70 169.18 21.18 169.70Q21.66 170.22 22.48 170.22L22.48 170.22Q23.32 170.22 23.81 169.70Q24.30 169.18 24.30 168.25L24.30 168.25L24.30 163L25.65 163L25.65 168.25Q25.65 169.71 24.78 170.55Q23.91 171.40 22.48 171.40ZM31.98 171.40L31.98 171.40Q30.96 171.40 30.34 170.85Q29.73 170.31 29.73 169.36L29.73 169.36L30 169.68L29.73 169.68L29.73 171.25L28.38 171.25L28.38 160.30L29.73 160.30L29.73 162.70L29.70 164.57L30 164.57L29.73 164.89Q29.73 163.96 30.35 163.41Q30.98 162.85 31.98 162.85L31.98 162.85Q33.23 162.85 33.98 163.68Q34.73 164.50 34.73 165.93L34.73 165.93L34.73 168.34Q34.73 169.75 33.98 170.57Q33.23 171.40 31.98 171.40ZM31.53 170.23L31.53 170.23Q32.38 170.23 32.88 169.72Q33.38 169.21 33.38 168.25L33.38 168.25L33.38 166Q33.38 165.04 32.88 164.53Q32.38 164.02 31.53 164.02L31.53 164.02Q30.70 164.02 30.22 164.54Q29.73 165.07 29.73 166L29.73 166L29.73 168.25Q29.73 169.18 30.22 169.71Q30.70 170.23 31.53 170.23ZM40.50 171.40L40.50 171.40Q39.52 171.40 38.80 171.01Q38.07 170.62 37.67 169.91Q37.27 169.19 37.27 168.25L37.27 168.25L37.27 166Q37.27 165.04 37.67 164.34Q38.07 163.63 38.80 163.24Q39.52 162.85 40.50 162.85L40.50 162.85Q41.48 162.85 42.20 163.24Q42.93 163.63 43.33 164.34Q43.73 165.04 43.73 166L43.73 166L43.73 167.46L38.59 167.46L38.59 168.25Q38.59 169.22 39.09 169.74Q39.59 170.26 40.50 170.26L40.50 170.26Q41.28 170.26 41.76 169.98Q42.24 169.71 42.34 169.15L42.34 169.15L43.70 169.15Q43.56 170.19 42.68 170.79Q41.80 171.40 40.50 171.40ZM42.51 166.44L42.41 166.56L42.41 166Q42.41 165.03 41.92 164.50Q41.43 163.97 40.50 163.97L40.50 163.97Q39.59 163.97 39.09 164.50Q38.59 165.03 38.59 166L38.59 166L38.59 166.44L42.51 166.44ZM48.02 171.25L46.66 171.25L46.66 163L47.98 163L47.98 164.57L48.30 164.57L47.87 165.55Q47.87 164.22 48.44 163.53Q49.02 162.85 50.16 162.85L50.16 162.85Q51.47 162.85 52.24 163.67Q53.01 164.49 53.01 165.88L53.01 165.88L53.01 166.38L51.66 166.38L51.66 166Q51.66 165.03 51.19 164.51Q50.72 163.99 49.84 163.99L49.84 163.99Q48.99 163.99 48.50 164.51Q48.02 165.04 48.02 166L48.02 166L48.02 171.25ZM56.73 171.25L55.38 171.25L55.38 163L56.73 163L56.73 164.57L57.02 164.57L56.73 164.89Q56.73 163.91 57.31 163.38Q57.90 162.85 58.94 162.85L58.94 162.85Q60.18 162.85 60.91 163.62Q61.65 164.38 61.65 165.70L61.65 165.70L61.65 171.25L60.30 171.25L60.30 165.85Q60.30 164.97 59.83 164.49Q59.35 164.02 58.55 164.02L58.55 164.02Q57.70 164.02 57.22 164.53Q56.73 165.04 56.73 166L56.73 166L56.73 171.25ZM67.50 171.40L67.50 171.40Q66.53 171.40 65.80 171.01Q65.07 170.62 64.67 169.91Q64.28 169.19 64.28 168.25L64.28 168.25L64.28 166Q64.28 165.04 64.67 164.34Q65.07 163.63 65.80 163.24Q66.53 162.85 67.50 162.85L67.50 162.85Q68.47 162.85 69.20 163.24Q69.93 163.63 70.33 164.34Q70.72 165.04 70.72 166L70.72 166L70.72 167.46L65.59 167.46L65.59 168.25Q65.59 169.22 66.09 169.74Q66.58 170.26 67.50 170.26L67.50 170.26Q68.28 170.26 68.76 169.98Q69.24 169.71 69.34 169.15L69.34 169.15L70.69 169.15Q70.56 170.19 69.68 170.79Q68.81 171.40 67.50 171.40ZM69.51 166.44L69.41 166.56L69.41 166Q69.41 165.03 68.92 164.50Q68.43 163.97 67.50 163.97L67.50 163.97Q66.58 163.97 66.09 164.50Q65.59 165.03 65.59 166L65.59 166L65.59 166.44L69.51 166.44ZM79.65 171.25L77.40 171.25Q76.33 171.25 75.74 170.68Q75.15 170.11 75.15 169.07L75.15 169.07L75.15 164.23L72.83 164.23L72.83 163L75.15 163L75.15 160.68L76.50 160.68L76.50 163L79.80 163L79.80 164.23L76.50 164.23L76.50 169.07Q76.50 170.02 77.40 170.02L77.40 170.02L79.65 170.02L79.65 171.25ZM85.50 171.40L85.50 171.40Q84.53 171.40 83.80 171.01Q83.07 170.62 82.67 169.91Q82.28 169.19 82.28 168.25L82.28 168.25L82.28 166Q82.28 165.04 82.67 164.34Q83.07 163.63 83.80 163.24Q84.53 162.85 85.50 162.85L85.50 162.85Q86.47 162.85 87.20 163.24Q87.93 163.63 88.33 164.34Q88.72 165.04 88.72 166L88.72 166L88.72 167.46L83.59 167.46L83.59 168.25Q83.59 169.22 84.09 169.74Q84.58 170.26 85.50 170.26L85.50 170.26Q86.28 170.26 86.76 169.98Q87.24 169.71 87.34 169.15L87.34 169.15L88.69 169.15Q88.56 170.19 87.68 170.79Q86.81 171.40 85.50 171.40ZM87.51 166.44L87.41 166.56L87.41 166Q87.41 165.03 86.92 164.50Q86.43 163.97 85.50 163.97L85.50 163.97Q84.58 163.97 84.09 164.50Q83.59 165.03 83.59 166L83.59 166L83.59 166.44L87.51 166.44ZM94.88 171.37L94.25 171.37Q93.41 171.37 92.78 171.11Q92.16 170.84 91.79 170.37Q91.42 169.88 91.35 169.22L91.35 169.22L92.70 169.22Q92.79 169.66 93.19 169.91Q93.58 170.17 94.25 170.17L94.25 170.17L94.88 170.17Q95.67 170.17 96.06 169.85Q96.45 169.53 96.45 168.99L96.45 168.99Q96.45 168.46 96.10 168.15Q95.75 167.84 95.06 167.74L95.06 167.74L93.94 167.56Q92.73 167.35 92.14 166.80Q91.55 166.25 91.55 165.21L91.55 165.21Q91.55 164.09 92.25 163.49Q92.95 162.88 94.36 162.88L94.36 162.88L94.94 162.88Q96.12 162.88 96.84 163.44Q97.56 163.99 97.71 164.94L97.71 164.94L96.36 164.94Q96.27 164.54 95.91 164.31Q95.55 164.08 94.94 164.08L94.94 164.08L94.36 164.08Q93.60 164.08 93.25 164.37Q92.89 164.65 92.89 165.22L92.89 165.22Q92.89 165.73 93.19 165.97Q93.50 166.21 94.14 166.31L94.14 166.31L95.25 166.50Q96.58 166.71 97.19 167.28Q97.80 167.84 97.80 168.93L97.80 168.93Q97.80 170.06 97.07 170.72Q96.34 171.37 94.88 171.37L94.88 171.37Z" fill="#0A1422"></path><line x1="113" y1="166" x2="223" y2="138" stroke="#0E93B0" stroke-width="1.5" opacity="0.45"></line><path d="M38.73 201.95L37.38 201.95L37.38 191L38.73 191L38.73 192.57L39 192.57L38.73 192.89Q38.73 191.94 39.35 191.40Q39.98 190.85 40.99 190.85L40.99 190.85Q42.24 190.85 42.98 191.67Q43.73 192.49 43.73 193.91L43.73 193.91L43.73 196.32Q43.73 197.27 43.39 197.96Q43.05 198.65 42.44 199.03Q41.84 199.40 40.99 199.40L40.99 199.40Q39.99 199.40 39.36 198.84Q38.73 198.29 38.73 197.36L38.73 197.36L39 197.68L38.70 197.68L38.73 199.55L38.73 201.95ZM40.55 198.23L40.55 198.23Q41.40 198.23 41.89 197.72Q42.38 197.21 42.38 196.25L42.38 196.25L42.38 194Q42.38 193.04 41.89 192.53Q41.40 192.02 40.55 192.02L40.55 192.02Q39.72 192.02 39.23 192.54Q38.73 193.07 38.73 194L38.73 194L38.73 196.25Q38.73 197.18 39.23 197.71Q39.72 198.23 40.55 198.23ZM48.02 199.25L46.66 199.25L46.66 191L47.98 191L47.98 192.57L48.30 192.57L47.87 193.55Q47.87 192.22 48.44 191.53Q49.02 190.85 50.16 190.85L50.16 190.85Q51.47 190.85 52.24 191.67Q53.01 192.49 53.01 193.88L53.01 193.88L53.01 194.38L51.66 194.38L51.66 194Q51.66 193.03 51.19 192.51Q50.72 191.99 49.84 191.99L49.84 191.99Q48.99 191.99 48.50 192.51Q48.02 193.04 48.02 194L48.02 194L48.02 199.25ZM58.50 199.37L58.50 199.37Q57.51 199.37 56.79 199.00Q56.07 198.62 55.67 197.91Q55.27 197.19 55.27 196.22L55.27 196.22L55.27 194.03Q55.27 193.04 55.67 192.34Q56.07 191.63 56.79 191.25Q57.51 190.88 58.50 190.88L58.50 190.88Q59.49 190.88 60.21 191.25Q60.93 191.63 61.33 192.34Q61.73 193.04 61.73 194.01L61.73 194.01L61.73 196.22Q61.73 197.19 61.33 197.91Q60.93 198.62 60.21 199.00Q59.49 199.37 58.50 199.37ZM58.50 198.17L58.50 198.17Q59.38 198.17 59.88 197.68Q60.38 197.18 60.38 196.22L60.38 196.22L60.38 194.03Q60.38 193.07 59.88 192.57Q59.38 192.08 58.50 192.08L58.50 192.08Q57.63 192.08 57.13 192.57Q56.63 193.07 56.63 194.03L56.63 194.03L56.63 196.22Q56.63 197.18 57.13 197.68Q57.63 198.17 58.50 198.17ZM65.33 199.25L63.75 199.25L66.67 195.00L63.93 191L65.52 191L67.16 193.55Q67.26 193.72 67.36 193.91Q67.45 194.10 67.52 194.22L67.52 194.22Q67.56 194.10 67.66 193.91Q67.75 193.72 67.86 193.55L67.86 193.55L69.51 191L71.08 191L68.34 195.02L71.25 199.25L69.66 199.25L67.89 196.55Q67.78 196.38 67.69 196.17Q67.59 195.95 67.52 195.81L67.52 195.81Q67.45 195.95 67.34 196.17Q67.23 196.38 67.11 196.55L67.11 196.55L65.33 199.25ZM74.23 199.25L72.99 199.25L72.99 191L74.17 191L74.17 191.99L74.44 191.99L74.23 192.35Q74.23 191.66 74.60 191.25Q74.97 190.85 75.60 190.85L75.60 190.85Q76.29 190.85 76.67 191.36Q77.04 191.87 77.04 192.80L77.04 192.80L76.64 191.99L77.27 191.99L76.98 192.35Q76.98 191.66 77.36 191.25Q77.75 190.85 78.38 190.85L78.38 190.85Q79.16 190.85 79.58 191.44Q80.01 192.02 80.01 192.98L80.01 192.98L80.01 199.25L78.77 199.25L78.77 192.97Q78.77 192.46 78.55 192.17Q78.33 191.88 77.91 191.88L77.91 191.88Q77.50 191.88 77.27 192.16Q77.04 192.44 77.04 192.95L77.04 192.95L77.04 199.25L75.96 199.25L75.96 192.97Q75.96 192.44 75.73 192.16Q75.50 191.88 75.08 191.88L75.08 191.88Q74.66 191.88 74.44 192.16Q74.23 192.44 74.23 192.95L74.23 192.95L74.23 199.25ZM85.50 199.37L85.50 199.37Q84.51 199.37 83.79 199.00Q83.07 198.62 82.67 197.91Q82.28 197.19 82.28 196.22L82.28 196.22L82.28 194.03Q82.28 193.04 82.67 192.34Q83.07 191.63 83.79 191.25Q84.51 190.88 85.50 190.88L85.50 190.88Q86.49 190.88 87.21 191.25Q87.93 191.63 88.33 192.34Q88.72 193.04 88.72 194.01L88.72 194.01L88.72 196.22Q88.72 197.19 88.33 197.91Q87.93 198.62 87.21 199.00Q86.49 199.37 85.50 199.37ZM85.50 198.17L85.50 198.17Q86.39 198.17 86.88 197.68Q87.38 197.18 87.38 196.22L87.38 196.22L87.38 194.03Q87.38 193.07 86.88 192.57Q86.39 192.08 85.50 192.08L85.50 192.08Q84.63 192.08 84.13 192.57Q83.63 193.07 83.63 194.03L83.63 194.03L83.63 196.22Q83.63 197.18 84.13 197.68Q84.63 198.17 85.50 198.17ZM92.33 199.25L90.75 199.25L93.67 195.00L90.93 191L92.52 191L94.16 193.55Q94.26 193.72 94.36 193.91Q94.45 194.10 94.52 194.22L94.52 194.22Q94.56 194.10 94.66 193.91Q94.75 193.72 94.86 193.55L94.86 193.55L96.51 191L98.08 191L95.34 195.02L98.25 199.25L96.66 199.25L94.89 196.55Q94.78 196.38 94.69 196.17Q94.59 195.95 94.52 195.81L94.52 195.81Q94.45 195.95 94.34 196.17Q94.23 196.38 94.11 196.55L94.11 196.55L92.33 199.25Z" fill="#0A1422"></path><line x1="113" y1="194" x2="223" y2="138" stroke="#0E93B0" stroke-width="1.5" opacity="0.45"></line><path d="M62.33 227.25L55.27 227.25L55.27 226.02L58.20 226.02L58.20 220.23L55.65 220.23L55.65 219L59.55 219L59.55 226.02L62.33 226.02L62.33 227.25ZM58.73 217.51L58.73 217.51Q58.23 217.51 57.95 217.26Q57.66 217.00 57.66 216.57L57.66 216.57Q57.66 216.12 57.95 215.86Q58.23 215.59 58.73 215.59L58.73 215.59Q59.22 215.59 59.51 215.86Q59.79 216.12 59.79 216.57L59.79 216.57Q59.79 217.00 59.51 217.26Q59.22 217.51 58.73 217.51ZM65.73 227.25L64.38 227.25L64.38 219L65.73 219L65.73 220.57L66.02 220.57L65.73 220.89Q65.73 219.91 66.31 219.38Q66.90 218.85 67.94 218.85L67.94 218.85Q69.18 218.85 69.92 219.62Q70.65 220.38 70.65 221.70L70.65 221.70L70.65 227.25L69.30 227.25L69.30 221.85Q69.30 220.97 68.83 220.49Q68.36 220.02 67.55 220.02L67.55 220.02Q66.70 220.02 66.22 220.53Q65.73 221.04 65.73 222L65.73 222L65.73 227.25ZM76.56 227.40L76.56 227.40Q75.57 227.40 74.83 227.03Q74.08 226.65 73.68 225.94Q73.28 225.22 73.28 224.25L73.28 224.25L73.28 222Q73.28 221.01 73.68 220.31Q74.08 219.60 74.83 219.22Q75.57 218.85 76.56 218.85L76.56 218.85Q77.98 218.85 78.86 219.62Q79.72 220.38 79.77 221.70L79.77 221.70L78.42 221.70Q78.38 220.91 77.89 220.48Q77.40 220.05 76.56 220.05L76.56 220.05Q75.67 220.05 75.15 220.55Q74.63 221.06 74.63 221.99L74.63 221.99L74.63 224.25Q74.63 225.18 75.15 225.69Q75.67 226.20 76.56 226.20L76.56 226.20Q77.40 226.20 77.89 225.76Q78.38 225.33 78.42 224.55L78.42 224.55L79.77 224.55Q79.72 225.87 78.86 226.63Q77.98 227.40 76.56 227.40ZM85.48 227.40L85.48 227.40Q84.06 227.40 83.20 226.55Q82.35 225.71 82.35 224.25L82.35 224.25L82.35 219L83.70 219L83.70 224.25Q83.70 225.18 84.18 225.70Q84.66 226.22 85.48 226.22L85.48 226.22Q86.33 226.22 86.81 225.70Q87.30 225.18 87.30 224.25L87.30 224.25L87.30 219L88.65 219L88.65 224.25Q88.65 225.71 87.78 226.55Q86.91 227.40 85.48 227.40ZM94.88 227.37L94.25 227.37Q93.41 227.37 92.78 227.11Q92.16 226.84 91.79 226.37Q91.42 225.88 91.35 225.22L91.35 225.22L92.70 225.22Q92.79 225.66 93.19 225.91Q93.58 226.17 94.25 226.17L94.25 226.17L94.88 226.17Q95.67 226.17 96.06 225.85Q96.45 225.53 96.45 224.99L96.45 224.99Q96.45 224.46 96.10 224.15Q95.75 223.84 95.06 223.74L95.06 223.74L93.94 223.56Q92.73 223.35 92.14 222.80Q91.55 222.25 91.55 221.21L91.55 221.21Q91.55 220.09 92.25 219.49Q92.95 218.88 94.36 218.88L94.36 218.88L94.94 218.88Q96.12 218.88 96.84 219.44Q97.56 219.99 97.71 220.94L97.71 220.94L96.36 220.94Q96.27 220.54 95.91 220.31Q95.55 220.08 94.94 220.08L94.94 220.08L94.36 220.08Q93.60 220.08 93.25 220.37Q92.89 220.65 92.89 221.22L92.89 221.22Q92.89 221.73 93.19 221.97Q93.50 222.21 94.14 222.31L94.14 222.31L95.25 222.50Q96.58 222.71 97.19 223.28Q97.80 223.84 97.80 224.93L97.80 224.93Q97.80 226.06 97.07 226.72Q96.34 227.37 94.88 227.37L94.88 227.37Z" fill="#0A1422"></path><line x1="113" y1="222" x2="223" y2="138" stroke="#0E93B0" stroke-width="1.5" opacity="0.45"></line><g transform="translate(237,96.0) scale(1.3125)"><defs><mask id="dnsw-wv-fll"><rect width="64" height="64" fill="white"></rect><path d="M12 43 C 27 43, 37 21, 48 21" stroke="black" stroke-width="11" fill="none" stroke-linecap="round"></path></mask></defs><path d="M12 21 C 27 21, 37 43, 48 43" stroke="#0E93B0" stroke-width="5.5" fill="none" stroke-linecap="round" mask="url(#dnsw-wv-fll)"></path><path d="M12 43 C 27 43, 37 21, 48 21" stroke="#0F9C7F" stroke-width="5.5" fill="none" stroke-linecap="round"></path><circle cx="10.5" cy="21" r="4.2" fill="#0E93B0"></circle><circle cx="10.5" cy="43" r="4.2" fill="#0F9C7F"></circle><circle cx="54.5" cy="21" r="4" fill="none" stroke="#0F9C7F" stroke-width="3.2"></circle><circle cx="54.5" cy="43" r="4" fill="none" stroke="#0E93B0" stroke-width="3.2"></circle></g><path d="M230.72 208.36L230.72 208.36Q229.58 208.36 228.62 207.94Q227.66 207.52 226.96 206.76Q226.26 206 225.88 204.99Q225.50 203.98 225.50 202.80L225.50 202.80L225.50 202.38Q225.50 201.22 225.87 200.20Q226.24 199.18 226.91 198.42Q227.58 197.66 228.53 197.23Q229.48 196.80 230.64 196.80L230.64 196.80Q231.92 196.80 232.89 197.35Q233.86 197.90 234.44 199Q235.02 200.10 235.08 201.76L235.08 201.76L234.26 200.80L234.26 193.40L237.04 193.40L237.04 208L234.84 208L234.84 203.38L235.32 203.38Q235.26 205.04 234.64 206.15Q234.02 207.26 233.01 207.81Q232 208.36 230.72 208.36ZM231.34 206.02L231.34 206.02Q232.16 206.02 232.84 205.65Q233.52 205.28 233.93 204.57Q234.34 203.86 234.34 202.90L234.34 202.90L234.34 202.10Q234.34 201.14 233.92 200.49Q233.50 199.84 232.82 199.49Q232.14 199.14 231.34 199.14L231.34 199.14Q230.44 199.14 229.75 199.57Q229.06 200 228.67 200.78Q228.28 201.56 228.28 202.60L228.28 202.60Q228.28 203.64 228.68 204.41Q229.08 205.18 229.77 205.60Q230.46 206.02 231.34 206.02ZM242.65 208L239.87 208L239.87 197.14L242.07 197.14L242.07 201.80L241.87 201.80Q241.87 200.14 242.31 199.03Q242.75 197.92 243.62 197.36Q244.49 196.80 245.79 196.80L245.79 196.80L245.91 196.80Q247.85 196.80 248.85 198.05Q249.85 199.30 249.85 201.78L249.85 201.78L249.85 208L247.07 208L247.07 201.54Q247.07 200.54 246.50 199.92Q245.93 199.30 244.93 199.30L244.93 199.30Q243.91 199.30 243.28 199.93Q242.65 200.56 242.65 201.62L242.65 201.62L242.65 208ZM256.43 208.34L256.43 208.34Q254.19 208.34 252.92 207.39Q251.65 206.44 251.59 204.76L251.59 204.76L254.09 204.76Q254.15 205.32 254.71 205.78Q255.27 206.24 256.47 206.24L256.47 206.24Q257.47 206.24 258.06 205.88Q258.65 205.52 258.65 204.90L258.65 204.90Q258.65 204.36 258.20 204.04Q257.75 203.72 256.67 203.62L256.67 203.62L255.71 203.52Q253.89 203.32 252.91 202.48Q251.93 201.64 251.93 200.24L251.93 200.24Q251.93 199.12 252.49 198.36Q253.05 197.60 254.04 197.21Q255.03 196.82 256.31 196.82L256.31 196.82Q258.31 196.82 259.55 197.70Q260.79 198.58 260.85 200.28L260.85 200.28L258.35 200.28Q258.31 199.72 257.79 199.32Q257.27 198.92 256.29 198.92L256.29 198.92Q255.41 198.92 254.93 199.26Q254.45 199.60 254.45 200.14L254.45 200.14Q254.45 200.66 254.84 200.94Q255.23 201.22 256.11 201.32L256.11 201.32L257.07 201.42Q258.99 201.62 260.08 202.48Q261.17 203.34 261.17 204.80L261.17 204.80Q261.17 205.88 260.58 206.67Q259.99 207.46 258.93 207.90Q257.87 208.34 256.43 208.34Z" fill="#0B7A93"></path><path d="M268.90 208L266.86 208L268.92 197.50L272.12 197.50L274.50 208L272.30 208L269.88 197.56L271.04 197.56L268.90 208ZM268.24 208L266.04 208L266.02 205.72L268.24 205.72L268.24 208ZM267.48 208L264.92 208L261.96 197.14L264.66 197.14L267.48 208ZM275.20 208L273 208L273 205.72L275.22 205.72L275.20 208ZM276.28 208L273.88 208L276.38 197.14L278.90 197.14L276.28 208ZM285.37 208.38L285.37 208.38Q283.97 208.38 282.92 207.90Q281.87 207.42 281.18 206.61Q280.49 205.80 280.14 204.80Q279.79 203.80 279.79 202.76L279.79 202.76L279.79 202.38Q279.79 201.30 280.14 200.29Q280.49 199.28 281.18 198.49Q281.87 197.70 282.89 197.23Q283.91 196.76 285.25 196.76L285.25 196.76Q287.01 196.76 288.20 197.53Q289.39 198.30 289.99 199.55Q290.59 200.80 290.59 202.24L290.59 202.24L290.59 203.24L280.97 203.24L280.97 201.54L288.85 201.54L287.99 202.38Q287.99 201.34 287.69 200.60Q287.39 199.86 286.78 199.46Q286.17 199.06 285.25 199.06L285.25 199.06Q284.33 199.06 283.69 199.48Q283.05 199.90 282.72 200.69Q282.39 201.48 282.39 202.58L282.39 202.58Q282.39 203.60 282.71 204.39Q283.03 205.18 283.69 205.63Q284.35 206.08 285.37 206.08L285.37 206.08Q286.39 206.08 287.03 205.67Q287.67 205.26 287.85 204.66L287.85 204.66L290.41 204.66Q290.17 205.78 289.49 206.62Q288.81 207.46 287.76 207.92Q286.71 208.38 285.37 208.38ZM301.35 208L299.15 208L299.15 204.78L298.69 204.78L298.69 201.20Q298.69 200.26 298.23 199.80Q297.77 199.34 296.81 199.34L296.81 199.34Q296.31 199.34 295.61 199.36Q294.91 199.38 294.20 199.41Q293.49 199.44 292.93 199.48L292.93 199.48L292.93 197.12Q293.39 197.08 293.97 197.04Q294.55 197 295.16 196.99Q295.77 196.98 296.31 196.98L296.31 196.98Q297.99 196.98 299.10 197.42Q300.21 197.86 300.78 198.80Q301.35 199.74 301.35 201.26L301.35 201.26L301.35 208ZM295.65 208.28L295.65 208.28Q294.47 208.28 293.58 207.86Q292.69 207.44 292.20 206.66Q291.71 205.88 291.71 204.78L291.71 204.78Q291.71 203.58 292.30 202.82Q292.89 202.06 293.96 201.68Q295.03 201.30 296.47 201.30L296.47 201.30L298.99 201.30L298.99 202.96L296.43 202.96Q295.47 202.96 294.96 203.43Q294.45 203.90 294.45 204.64L294.45 204.64Q294.45 205.38 294.96 205.84Q295.47 206.30 296.43 206.30L296.43 206.30Q297.01 206.30 297.50 206.09Q297.99 205.88 298.32 205.37Q298.65 204.86 298.69 203.98L298.69 203.98L299.37 204.76Q299.27 205.90 298.82 206.68Q298.37 207.46 297.58 207.87Q296.79 208.28 295.65 208.28ZM308.76 208L306.04 208L302.64 197.14L305.50 197.14L308.76 208ZM309.80 208L306.86 208L306.86 205.72L309.80 205.72L309.80 208ZM310.50 208L307.96 208L310.76 197.14L313.44 197.14L310.50 208ZM319.83 208.38L319.83 208.38Q318.43 208.38 317.38 207.90Q316.33 207.42 315.64 206.61Q314.95 205.80 314.60 204.80Q314.25 203.80 314.25 202.76L314.25 202.76L314.25 202.38Q314.25 201.30 314.60 200.29Q314.95 199.28 315.64 198.49Q316.33 197.70 317.35 197.23Q318.37 196.76 319.71 196.76L319.71 196.76Q321.47 196.76 322.66 197.53Q323.85 198.30 324.45 199.55Q325.05 200.80 325.05 202.24L325.05 202.24L325.05 203.24L315.43 203.24L315.43 201.54L323.31 201.54L322.45 202.38Q322.45 201.34 322.15 200.60Q321.85 199.86 321.24 199.46Q320.63 199.06 319.71 199.06L319.71 199.06Q318.79 199.06 318.15 199.48Q317.51 199.90 317.18 200.69Q316.85 201.48 316.85 202.58L316.85 202.58Q316.85 203.60 317.17 204.39Q317.49 205.18 318.15 205.63Q318.81 206.08 319.83 206.08L319.83 206.08Q320.85 206.08 321.49 205.67Q322.13 205.26 322.31 204.66L322.31 204.66L324.87 204.66Q324.63 205.78 323.95 206.62Q323.27 207.46 322.22 207.92Q321.17 208.38 319.83 208.38ZM329.81 208L327.03 208L327.03 197.14L329.23 197.14L329.23 201.74L329.17 201.74Q329.17 199.40 330.17 198.20Q331.17 197 333.11 197L333.11 197L333.51 197L333.51 199.42L332.75 199.42Q331.35 199.42 330.58 200.17Q329.81 200.92 329.81 202.34L329.81 202.34L329.81 208Z" fill="#0A1422"></path><line x1="335" y1="138" x2="445" y2="68" stroke="#0F9C7F" stroke-width="1.5" opacity="0.45"></line><path d="M466.65 73.25L464.40 73.25Q463.33 73.25 462.74 72.68Q462.15 72.11 462.15 71.08L462.15 71.08L462.15 66.23L459.82 66.23L459.82 65L462.15 65L462.15 62.67L463.50 62.67L463.50 65L466.80 65L466.80 66.23L463.50 66.23L463.50 71.08Q463.50 72.02 464.40 72.02L464.40 72.02L466.65 72.02L466.65 73.25ZM472.50 73.40L472.50 73.40Q471.52 73.40 470.80 73.01Q470.07 72.62 469.67 71.91Q469.27 71.19 469.27 70.25L469.27 70.25L469.27 68Q469.27 67.04 469.67 66.33Q470.07 65.63 470.80 65.24Q471.52 64.85 472.50 64.85L472.50 64.85Q473.48 64.85 474.20 65.24Q474.93 65.63 475.33 66.33Q475.73 67.04 475.73 68L475.73 68L475.73 69.45L470.60 69.45L470.60 70.25Q470.60 71.22 471.09 71.74Q471.58 72.26 472.50 72.26L472.50 72.26Q473.28 72.26 473.76 71.98Q474.24 71.70 474.35 71.15L474.35 71.15L475.69 71.15Q475.56 72.19 474.68 72.79Q473.81 73.40 472.50 73.40ZM474.51 68.44L474.40 68.56L474.40 68Q474.40 67.03 473.92 66.50Q473.43 65.97 472.50 65.97L472.50 65.97Q471.58 65.97 471.09 66.50Q470.60 67.03 470.60 68L470.60 68L470.60 68.44L474.51 68.44ZM481.56 73.40L481.56 73.40Q480.57 73.40 479.83 73.03Q479.08 72.65 478.68 71.94Q478.27 71.22 478.27 70.25L478.27 70.25L478.27 68Q478.27 67.01 478.68 66.31Q479.08 65.60 479.83 65.22Q480.57 64.85 481.56 64.85L481.56 64.85Q482.99 64.85 483.86 65.61Q484.73 66.38 484.77 67.70L484.77 67.70L483.42 67.70Q483.38 66.91 482.89 66.48Q482.40 66.05 481.56 66.05L481.56 66.05Q480.68 66.05 480.15 66.55Q479.63 67.06 479.63 67.98L479.63 67.98L479.63 70.25Q479.63 71.18 480.15 71.69Q480.68 72.20 481.56 72.20L481.56 72.20Q482.40 72.20 482.89 71.77Q483.38 71.33 483.42 70.55L483.42 70.55L484.77 70.55Q484.73 71.87 483.86 72.64Q482.99 73.40 481.56 73.40ZM488.73 73.25L487.38 73.25L487.38 62.30L488.73 62.30L488.73 65L488.73 66.58L489.01 66.58L488.73 66.89Q488.73 65.92 489.31 65.38Q489.90 64.85 490.94 64.85L490.94 64.85Q492.18 64.85 492.92 65.61Q493.65 66.38 493.65 67.70L493.65 67.70L493.65 73.25L492.30 73.25L492.30 67.85Q492.30 66.97 491.83 66.48Q491.36 65.99 490.55 65.99L490.55 65.99Q489.70 65.99 489.22 66.52Q488.73 67.04 488.73 68L488.73 68L488.73 73.25ZM497.73 73.25L496.38 73.25L496.38 65L497.73 65L497.73 66.58L498.01 66.58L497.73 66.89Q497.73 65.92 498.31 65.38Q498.90 64.85 499.94 64.85L499.94 64.85Q501.18 64.85 501.92 65.61Q502.65 66.38 502.65 67.70L502.65 67.70L502.65 73.25L501.30 73.25L501.30 67.85Q501.30 66.97 500.83 66.49Q500.36 66.02 499.55 66.02L499.55 66.02Q498.70 66.02 498.22 66.53Q497.73 67.04 497.73 68L497.73 68L497.73 73.25ZM512.33 73.25L505.27 73.25L505.27 72.02L508.20 72.02L508.20 66.23L505.65 66.23L505.65 65L509.55 65L509.55 72.02L512.33 72.02L512.33 73.25ZM508.73 63.52L508.73 63.52Q508.23 63.52 507.94 63.26Q507.66 63.01 507.66 62.57L507.66 62.57Q507.66 62.12 507.94 61.86Q508.23 61.59 508.73 61.59L508.73 61.59Q509.22 61.59 509.50 61.86Q509.79 62.12 509.79 62.57L509.79 62.57Q509.79 63.01 509.50 63.26Q509.22 63.52 508.73 63.52ZM520.65 73.25L518.40 73.25Q517.34 73.25 516.74 72.68Q516.15 72.11 516.15 71.08L516.15 71.08L516.15 66.23L513.83 66.23L513.83 65L516.15 65L516.15 62.67L517.50 62.67L517.50 65L520.80 65L520.80 66.23L517.50 66.23L517.50 71.08Q517.50 72.02 518.40 72.02L518.40 72.02L520.65 72.02L520.65 73.25ZM530.33 73.25L523.27 73.25L523.27 72.02L526.20 72.02L526.20 66.23L523.65 66.23L523.65 65L527.55 65L527.55 72.02L530.33 72.02L530.33 73.25ZM526.73 63.52L526.73 63.52Q526.23 63.52 525.95 63.26Q525.66 63.01 525.66 62.57L525.66 62.57Q525.66 62.12 525.95 61.86Q526.23 61.59 526.73 61.59L526.73 61.59Q527.22 61.59 527.50 61.86Q527.79 62.12 527.79 62.57L527.79 62.57Q527.79 63.01 527.50 63.26Q527.22 63.52 526.73 63.52ZM535.49 73.40L535.49 73.40Q534.06 73.40 533.21 72.55Q532.35 71.70 532.35 70.25L532.35 70.25L532.35 65L533.70 65L533.70 70.25Q533.70 71.18 534.18 71.70Q534.66 72.22 535.49 72.22L535.49 72.22Q536.33 72.22 536.81 71.70Q537.30 71.18 537.30 70.25L537.30 70.25L537.30 65L538.65 65L538.65 70.25Q538.65 71.70 537.78 72.55Q536.91 73.40 535.49 73.40ZM542.24 73.25L540.99 73.25L540.99 65L542.17 65L542.17 65.99L542.45 65.99L542.24 66.35Q542.24 65.66 542.60 65.25Q542.97 64.85 543.60 64.85L543.60 64.85Q544.29 64.85 544.66 65.36Q545.04 65.87 545.04 66.80L545.04 66.80L544.63 65.99L545.26 65.99L544.98 66.35Q544.98 65.66 545.36 65.25Q545.75 64.85 546.38 64.85L546.38 64.85Q547.15 64.85 547.58 65.44Q548.01 66.02 548.01 66.98L548.01 66.98L548.01 73.25L546.76 73.25L546.76 66.97Q546.76 66.45 546.55 66.17Q546.33 65.89 545.91 65.89L545.91 65.89Q545.50 65.89 545.27 66.16Q545.04 66.44 545.04 66.95L545.04 66.95L545.04 73.25L543.96 73.25L543.96 66.97Q543.96 66.44 543.73 66.16Q543.50 65.89 543.08 65.89L543.08 65.89Q542.65 65.89 542.45 66.16Q542.24 66.44 542.24 66.95L542.24 66.95L542.24 73.25Z" fill="#0A1422"></path><line x1="335" y1="138" x2="445" y2="96" stroke="#0F9C7F" stroke-width="1.5" opacity="0.45"></line><path d="M461.73 103.95L460.38 103.95L460.38 93L461.73 93L461.73 94.58L462 94.58L461.73 94.89Q461.73 93.94 462.35 93.40Q462.98 92.85 464.00 92.85L464.00 92.85Q465.24 92.85 465.98 93.67Q466.73 94.48 466.73 95.91L466.73 95.91L466.73 98.33Q466.73 99.27 466.39 99.96Q466.05 100.65 465.44 101.03Q464.83 101.40 464.00 101.40L464.00 101.40Q462.99 101.40 462.36 100.84Q461.73 100.29 461.73 99.36L461.73 99.36L462 99.67L461.70 99.67L461.73 101.55L461.73 103.95ZM463.55 100.23L463.55 100.23Q464.40 100.23 464.89 99.72Q465.38 99.21 465.38 98.25L465.38 98.25L465.38 96Q465.38 95.04 464.89 94.53Q464.40 94.02 463.55 94.02L463.55 94.02Q462.72 94.02 462.23 94.55Q461.73 95.07 461.73 96L461.73 96L461.73 98.25Q461.73 99.18 462.23 99.70Q462.72 100.23 463.55 100.23ZM476.32 101.25L469.27 101.25L469.27 100.02L472.20 100.02L472.20 94.23L469.65 94.23L469.65 93L473.55 93L473.55 100.02L476.32 100.02L476.32 101.25ZM472.73 91.52L472.73 91.52Q472.23 91.52 471.94 91.26Q471.66 91.00 471.66 90.57L471.66 90.57Q471.66 90.12 471.94 89.86Q472.23 89.59 472.73 89.59L472.73 89.59Q473.22 89.59 473.50 89.86Q473.79 90.12 473.79 90.57L473.79 90.57Q473.79 91.00 473.50 91.26Q473.22 91.52 472.73 91.52ZM479.73 101.25L478.38 101.25L478.38 90.30L479.73 90.30L479.73 93L479.73 94.58L480.01 94.58L479.73 94.89Q479.73 93.92 480.31 93.38Q480.90 92.85 481.94 92.85L481.94 92.85Q483.18 92.85 483.92 93.61Q484.65 94.38 484.65 95.70L484.65 95.70L484.65 101.25L483.30 101.25L483.30 95.85Q483.30 94.97 482.83 94.48Q482.36 93.99 481.55 93.99L481.55 93.99Q480.70 93.99 480.22 94.52Q479.73 95.04 479.73 96L479.73 96L479.73 101.25ZM490.50 101.37L490.50 101.37Q489.51 101.37 488.79 101.00Q488.07 100.62 487.67 99.91Q487.27 99.19 487.27 98.22L487.27 98.22L487.27 96.03Q487.27 95.04 487.67 94.33Q488.07 93.63 488.79 93.25Q489.51 92.88 490.50 92.88L490.50 92.88Q491.49 92.88 492.21 93.25Q492.93 93.63 493.33 94.33Q493.73 95.04 493.73 96.02L493.73 96.02L493.73 98.22Q493.73 99.19 493.33 99.91Q492.93 100.62 492.21 101.00Q491.49 101.37 490.50 101.37ZM490.50 100.17L490.50 100.17Q491.38 100.17 491.88 99.67Q492.38 99.18 492.38 98.22L492.38 98.22L492.38 96.03Q492.38 95.07 491.88 94.58Q491.38 94.08 490.50 94.08L490.50 94.08Q489.63 94.08 489.13 94.58Q488.63 95.07 488.63 96.03L488.63 96.03L488.63 98.22Q488.63 99.18 489.13 99.67Q489.63 100.17 490.50 100.17ZM503.25 101.25L500.63 101.25Q499.90 101.25 499.37 100.97Q498.82 100.68 498.52 100.16Q498.23 99.63 498.23 98.92L498.23 98.92L498.23 91.53L495.45 91.53L495.45 90.30L499.57 90.30L499.57 98.92Q499.57 99.44 499.86 99.73Q500.14 100.02 500.63 100.02L500.63 100.02L503.25 100.02L503.25 101.25ZM508.50 101.40L508.50 101.40Q507.52 101.40 506.80 101.01Q506.07 100.62 505.67 99.91Q505.27 99.19 505.27 98.25L505.27 98.25L505.27 96Q505.27 95.04 505.67 94.33Q506.07 93.63 506.80 93.24Q507.52 92.85 508.50 92.85L508.50 92.85Q509.48 92.85 510.20 93.24Q510.93 93.63 511.33 94.33Q511.73 95.04 511.73 96L511.73 96L511.73 97.45L506.60 97.45L506.60 98.25Q506.60 99.22 507.09 99.74Q507.58 100.26 508.50 100.26L508.50 100.26Q509.28 100.26 509.76 99.98Q510.24 99.70 510.35 99.15L510.35 99.15L511.69 99.15Q511.56 100.19 510.68 100.79Q509.81 101.40 508.50 101.40ZM510.51 96.44L510.40 96.56L510.40 96Q510.40 95.03 509.92 94.50Q509.43 93.97 508.50 93.97L508.50 93.97Q507.58 93.97 507.09 94.50Q506.60 95.03 506.60 96L506.60 96L506.60 96.44L510.51 96.44Z" fill="#0A1422"></path><line x1="335" y1="138" x2="445" y2="124" stroke="#0F9C7F" stroke-width="1.5" opacity="0.45"></line><path d="M462.78 129.40L462.78 129.40Q461.48 129.40 460.73 128.73Q459.98 128.06 459.98 126.92L459.98 126.92Q459.98 125.77 460.73 125.11Q461.48 124.45 462.75 124.45L462.75 124.45L465.30 124.45L465.30 123.63Q465.30 122.86 464.84 122.45Q464.38 122.03 463.55 122.03L463.55 122.03Q462.81 122.03 462.31 122.34Q461.82 122.65 461.75 123.17L461.75 123.17L460.39 123.17Q460.53 122.11 461.40 121.48Q462.27 120.85 463.57 120.85L463.57 120.85Q465 120.85 465.82 121.58Q466.65 122.32 466.65 123.58L466.65 123.58L466.65 129.25L465.33 129.25L465.33 127.67L465.11 127.67L465.33 127.45Q465.33 128.35 464.63 128.88Q463.94 129.40 462.78 129.40ZM463.11 128.34L463.11 128.34Q464.07 128.34 464.69 127.86Q465.30 127.38 465.30 126.63L465.30 126.63L465.30 125.45L462.78 125.45Q462.11 125.45 461.71 125.83Q461.32 126.20 461.32 126.85L461.32 126.85Q461.32 127.54 461.80 127.94Q462.27 128.34 463.11 128.34ZM472.02 129.40L472.02 129.40Q470.79 129.40 470.03 128.57Q469.27 127.75 469.27 126.34L469.27 126.34L469.27 123.92Q469.27 122.50 470.02 121.67Q470.77 120.85 472.02 120.85L472.02 120.85Q473.04 120.85 473.65 121.41Q474.27 121.96 474.27 122.89L474.27 122.89L474 122.58L474.30 122.58L474.27 120.70L474.27 118.30L475.62 118.30L475.62 129.25L474.27 129.25L474.27 127.67L474 127.67L474.27 127.36Q474.27 128.31 473.65 128.85Q473.04 129.40 472.02 129.40ZM472.47 128.23L472.47 128.23Q473.31 128.23 473.79 127.70Q474.27 127.18 474.27 126.25L474.27 126.25L474.27 124Q474.27 123.07 473.79 122.55Q473.31 122.02 472.47 122.02L472.47 122.02Q471.62 122.02 471.12 122.53Q470.63 123.04 470.63 124L470.63 124L470.63 126.25Q470.63 127.21 471.12 127.72Q471.62 128.23 472.47 128.23ZM482.02 131.95L479.42 131.95L479.42 130.72L482.04 130.72Q482.67 130.72 482.96 130.44Q483.25 130.15 483.25 129.55L483.25 129.55L483.25 128.50L483.29 127L483.01 127L483.27 126.78Q483.27 127.67 482.67 128.20Q482.07 128.72 481.06 128.72L481.06 128.72Q479.79 128.72 479.06 127.89Q478.32 127.06 478.32 125.65L478.32 125.65L478.32 123.91Q478.32 122.50 479.06 121.67Q479.79 120.85 481.06 120.85L481.06 120.85Q482.07 120.85 482.67 121.38Q483.27 121.90 483.27 122.80L483.27 122.80L483.01 122.58L483.27 122.58L483.27 121L484.61 121L484.61 129.55Q484.61 130.66 483.92 131.31Q483.24 131.95 482.02 131.95L482.02 131.95ZM481.47 127.56L481.47 127.56Q482.31 127.56 482.79 127.03Q483.27 126.50 483.27 125.58L483.27 125.58L483.27 124Q483.27 123.07 482.79 122.55Q482.31 122.02 481.47 122.02L481.47 122.02Q480.62 122.02 480.14 122.53Q479.67 123.04 479.67 124L479.67 124L479.67 125.58Q479.67 126.53 480.14 127.05Q480.62 127.56 481.47 127.56ZM490.49 129.40L490.49 129.40Q489.06 129.40 488.20 128.55Q487.35 127.70 487.35 126.25L487.35 126.25L487.35 121L488.70 121L488.70 126.25Q488.70 127.18 489.18 127.70Q489.66 128.22 490.49 128.22L490.49 128.22Q491.32 128.22 491.81 127.70Q492.30 127.18 492.30 126.25L492.30 126.25L492.30 121L493.65 121L493.65 126.25Q493.65 127.70 492.78 128.55Q491.91 129.40 490.49 129.40ZM498.78 129.40L498.78 129.40Q497.48 129.40 496.73 128.73Q495.98 128.06 495.98 126.92L495.98 126.92Q495.98 125.77 496.73 125.11Q497.48 124.45 498.75 124.45L498.75 124.45L501.30 124.45L501.30 123.63Q501.30 122.86 500.84 122.45Q500.38 122.03 499.55 122.03L499.55 122.03Q498.81 122.03 498.31 122.34Q497.82 122.65 497.75 123.17L497.75 123.17L496.39 123.17Q496.53 122.11 497.40 121.48Q498.27 120.85 499.57 120.85L499.57 120.85Q501 120.85 501.82 121.58Q502.65 122.32 502.65 123.58L502.65 123.58L502.65 129.25L501.33 129.25L501.33 127.67L501.11 127.67L501.33 127.45Q501.33 128.35 500.63 128.88Q499.94 129.40 498.78 129.40ZM499.11 128.34L499.11 128.34Q500.07 128.34 500.69 127.86Q501.30 127.38 501.30 126.63L501.30 126.63L501.30 125.45L498.78 125.45Q498.11 125.45 497.71 125.83Q497.32 126.20 497.32 126.85L497.32 126.85Q497.32 127.54 497.80 127.94Q498.27 128.34 499.11 128.34ZM507.01 129.25L505.67 129.25L505.67 121L506.99 121L506.99 122.58L507.30 122.58L506.87 123.55Q506.87 122.22 507.44 121.53Q508.02 120.85 509.16 120.85L509.16 120.85Q510.46 120.85 511.24 121.67Q512.01 122.48 512.01 123.88L512.01 123.88L512.01 124.38L510.66 124.38L510.66 124Q510.66 123.03 510.19 122.51Q509.71 121.99 508.85 121.99L508.85 121.99Q507.99 121.99 507.50 122.52Q507.01 123.04 507.01 124L507.01 124L507.01 129.25ZM517.02 129.40L517.02 129.40Q515.79 129.40 515.03 128.57Q514.27 127.75 514.27 126.34L514.27 126.34L514.27 123.92Q514.27 122.50 515.02 121.67Q515.77 120.85 517.02 120.85L517.02 120.85Q518.04 120.85 518.65 121.41Q519.27 121.96 519.27 122.89L519.27 122.89L519 122.58L519.30 122.58L519.27 120.70L519.27 118.30L520.62 118.30L520.62 129.25L519.27 129.25L519.27 127.67L519 127.67L519.27 127.36Q519.27 128.31 518.65 128.85Q518.04 129.40 517.02 129.40ZM517.47 128.23L517.47 128.23Q518.31 128.23 518.79 127.70Q519.27 127.18 519.27 126.25L519.27 126.25L519.27 124Q519.27 123.07 518.79 122.55Q518.31 122.02 517.47 122.02L517.47 122.02Q516.62 122.02 516.12 122.53Q515.63 123.04 515.63 124L515.63 124L515.63 126.25Q515.63 127.21 516.12 127.72Q516.62 128.23 517.47 128.23Z" fill="#0A1422"></path><line x1="335" y1="138" x2="445" y2="152" stroke="#0F9C7F" stroke-width="1.5" opacity="0.45"></line><path d="M463.02 157.40L463.02 157.40Q461.79 157.40 461.03 156.57Q460.27 155.75 460.27 154.34L460.27 154.34L460.27 151.93Q460.27 150.50 461.02 149.68Q461.77 148.85 463.02 148.85L463.02 148.85Q464.04 148.85 464.65 149.41Q465.27 149.96 465.27 150.89L465.27 150.89L465 150.57L465.30 150.57L465.27 148.70L465.27 146.30L466.62 146.30L466.62 157.25L465.27 157.25L465.27 155.68L465 155.68L465.27 155.36Q465.27 156.31 464.65 156.85Q464.04 157.40 463.02 157.40ZM463.47 156.23L463.47 156.23Q464.31 156.23 464.79 155.71Q465.27 155.18 465.27 154.25L465.27 154.25L465.27 152Q465.27 151.07 464.79 150.54Q464.31 150.02 463.47 150.02L463.47 150.02Q462.62 150.02 462.12 150.53Q461.63 151.04 461.63 152L461.63 152L461.63 154.25Q461.63 155.21 462.12 155.72Q462.62 156.23 463.47 156.23ZM470.73 157.25L469.38 157.25L469.38 149L470.73 149L470.73 150.57L471.01 150.57L470.73 150.89Q470.73 149.91 471.31 149.38Q471.90 148.85 472.94 148.85L472.94 148.85Q474.18 148.85 474.92 149.62Q475.65 150.38 475.65 151.70L475.65 151.70L475.65 157.25L474.30 157.25L474.30 151.85Q474.30 150.97 473.83 150.49Q473.36 150.02 472.55 150.02L472.55 150.02Q471.70 150.02 471.22 150.53Q470.73 151.04 470.73 152L470.73 152L470.73 157.25ZM481.88 157.37L481.25 157.37Q480.40 157.37 479.78 157.11Q479.16 156.84 478.79 156.37Q478.43 155.88 478.35 155.22L478.35 155.22L479.70 155.22Q479.79 155.66 480.19 155.91Q480.58 156.17 481.25 156.17L481.25 156.17L481.88 156.17Q482.67 156.17 483.06 155.85Q483.45 155.53 483.45 154.99L483.45 154.99Q483.45 154.46 483.10 154.15Q482.75 153.84 482.06 153.74L482.06 153.74L480.94 153.56Q479.73 153.35 479.14 152.80Q478.55 152.25 478.55 151.21L478.55 151.21Q478.55 150.09 479.25 149.49Q479.95 148.88 481.37 148.88L481.37 148.88L481.94 148.88Q483.12 148.88 483.84 149.44Q484.56 149.99 484.71 150.94L484.71 150.94L483.36 150.94Q483.27 150.54 482.91 150.31Q482.55 150.08 481.94 150.08L481.94 150.08L481.37 150.08Q480.60 150.08 480.25 150.37Q479.89 150.65 479.89 151.22L479.89 151.22Q479.89 151.73 480.19 151.97Q480.50 152.21 481.14 152.31L481.14 152.31L482.25 152.50Q483.58 152.71 484.19 153.28Q484.80 153.84 484.80 154.93L484.80 154.93Q484.80 156.06 484.07 156.72Q483.35 157.37 481.88 157.37L481.88 157.37ZM488.24 157.25L486.99 157.25L486.99 149L488.18 149L488.18 149.99L488.44 149.99L488.24 150.35Q488.24 149.66 488.60 149.25Q488.97 148.85 489.60 148.85L489.60 148.85Q490.29 148.85 490.67 149.36Q491.04 149.87 491.04 150.80L491.04 150.80L490.63 149.99L491.26 149.99L490.98 150.35Q490.98 149.66 491.36 149.25Q491.75 148.85 492.38 148.85L492.38 148.85Q493.15 148.85 493.58 149.44Q494.01 150.02 494.01 150.98L494.01 150.98L494.01 157.25L492.76 157.25L492.76 150.97Q492.76 150.46 492.55 150.17Q492.33 149.88 491.91 149.88L491.91 149.88Q491.50 149.88 491.27 150.16Q491.04 150.44 491.04 150.95L491.04 150.95L491.04 157.25L489.96 157.25L489.96 150.97Q489.96 150.44 489.73 150.16Q489.50 149.88 489.07 149.88L489.07 149.88Q488.65 149.88 488.44 150.16Q488.24 150.44 488.24 150.95L488.24 150.95L488.24 157.25ZM498.78 157.40L498.78 157.40Q497.48 157.40 496.73 156.73Q495.98 156.06 495.98 154.93L495.98 154.93Q495.98 153.77 496.73 153.11Q497.48 152.45 498.75 152.45L498.75 152.45L501.30 152.45L501.30 151.63Q501.30 150.86 500.84 150.45Q500.38 150.03 499.55 150.03L499.55 150.03Q498.81 150.03 498.31 150.34Q497.82 150.65 497.75 151.18L497.75 151.18L496.39 151.18Q496.53 150.11 497.40 149.48Q498.27 148.85 499.57 148.85L499.57 148.85Q501 148.85 501.82 149.59Q502.65 150.32 502.65 151.58L502.65 151.58L502.65 157.25L501.33 157.25L501.33 155.68L501.11 155.68L501.33 155.45Q501.33 156.35 500.63 156.88Q499.94 157.40 498.78 157.40ZM499.11 156.34L499.11 156.34Q500.07 156.34 500.69 155.85Q501.30 155.38 501.30 154.63L501.30 154.63L501.30 153.46L498.78 153.46Q498.11 153.46 497.71 153.83Q497.32 154.21 497.32 154.85L497.32 154.85Q497.32 155.54 497.80 155.94Q498.27 156.34 499.11 156.34ZM508.88 157.37L508.25 157.37Q507.40 157.37 506.78 157.11Q506.16 156.84 505.79 156.37Q505.43 155.88 505.35 155.22L505.35 155.22L506.70 155.22Q506.79 155.66 507.19 155.91Q507.58 156.17 508.25 156.17L508.25 156.17L508.88 156.17Q509.67 156.17 510.06 155.85Q510.45 155.53 510.45 154.99L510.45 154.99Q510.45 154.46 510.10 154.15Q509.75 153.84 509.06 153.74L509.06 153.74L507.94 153.56Q506.73 153.35 506.14 152.80Q505.55 152.25 505.55 151.21L505.55 151.21Q505.55 150.09 506.25 149.49Q506.95 148.88 508.37 148.88L508.37 148.88L508.94 148.88Q510.12 148.88 510.84 149.44Q511.56 149.99 511.71 150.94L511.71 150.94L510.36 150.94Q510.27 150.54 509.91 150.31Q509.55 150.08 508.94 150.08L508.94 150.08L508.37 150.08Q507.60 150.08 507.25 150.37Q506.89 150.65 506.89 151.22L506.89 151.22Q506.89 151.73 507.19 151.97Q507.50 152.21 508.14 152.31L508.14 152.31L509.25 152.50Q510.58 152.71 511.19 153.28Q511.80 153.84 511.80 154.93L511.80 154.93Q511.80 156.06 511.07 156.72Q510.35 157.37 508.88 157.37L508.88 157.37ZM520.62 159.95L519.27 159.95L519.27 157.55L519.30 155.68L519 155.68L519.27 155.36Q519.27 156.29 518.65 156.84Q518.04 157.40 517.02 157.40L517.02 157.40Q515.77 157.40 515.05 156.57Q514.32 155.75 514.32 154.32L514.32 154.32L514.32 151.91Q514.32 150.49 515.05 149.67Q515.79 148.85 517.02 148.85L517.02 148.85Q518.04 148.85 518.65 149.40Q519.27 149.94 519.27 150.89L519.27 150.89L519 150.57L519.27 150.57L519.27 149L520.62 149L520.62 159.95ZM517.47 156.23L517.47 156.23Q518.31 156.23 518.79 155.71Q519.27 155.18 519.27 154.25L519.27 154.25L519.27 152Q519.27 151.07 518.79 150.54Q518.31 150.02 517.47 150.02L517.47 150.02Q516.62 150.02 516.14 150.53Q515.67 151.04 515.67 152L515.67 152L515.67 154.25Q515.67 155.21 516.14 155.72Q516.62 156.23 517.47 156.23Z" fill="#0A1422"></path><line x1="335" y1="138" x2="445" y2="180" stroke="#0F9C7F" stroke-width="1.5" opacity="0.45"></line><path d="M462.01 185.25L460.67 185.25L460.67 177L461.99 177L461.99 178.57L462.30 178.57L461.87 179.55Q461.87 178.22 462.44 177.53Q463.02 176.85 464.16 176.85L464.16 176.85Q465.46 176.85 466.24 177.67Q467.01 178.49 467.01 179.88L467.01 179.88L467.01 180.38L465.66 180.38L465.66 180Q465.66 179.03 465.19 178.51Q464.71 177.99 463.85 177.99L463.85 177.99Q462.99 177.99 462.50 178.51Q462.01 179.04 462.01 180L462.01 180L462.01 185.25ZM472.65 185.25L471.30 185.25L471.30 179.06L468.90 179.06L468.90 177.82L471.30 177.82L471.30 176.40Q471.30 175.43 471.92 174.86Q472.53 174.30 473.61 174.30L473.61 174.30L476.02 174.30L476.02 175.53L473.61 175.53Q473.14 175.53 472.90 175.75Q472.65 175.97 472.65 176.40L472.65 176.40L472.65 177.82L476.02 177.82L476.02 179.06L472.65 179.06L472.65 185.25ZM481.56 185.40L481.56 185.40Q480.57 185.40 479.83 185.03Q479.08 184.65 478.68 183.94Q478.27 183.22 478.27 182.25L478.27 182.25L478.27 180Q478.27 179.01 478.68 178.31Q479.08 177.60 479.83 177.22Q480.57 176.85 481.56 176.85L481.56 176.85Q482.99 176.85 483.86 177.62Q484.73 178.38 484.77 179.70L484.77 179.70L483.42 179.70Q483.38 178.91 482.89 178.48Q482.40 178.05 481.56 178.05L481.56 178.05Q480.68 178.05 480.15 178.55Q479.63 179.06 479.63 179.99L479.63 179.99L479.63 182.25Q479.63 183.18 480.15 183.69Q480.68 184.20 481.56 184.20L481.56 184.20Q482.40 184.20 482.89 183.76Q483.38 183.33 483.42 182.55L483.42 182.55L484.77 182.55Q484.73 183.87 483.86 184.63Q482.99 185.40 481.56 185.40ZM493.89 185.25L487.38 185.25L487.38 183.87L490.73 180.31Q491.58 179.40 491.97 178.69Q492.36 177.97 492.36 177.31L492.36 177.31Q492.36 176.40 491.86 175.88Q491.36 175.35 490.49 175.35L490.49 175.35Q489.52 175.35 488.98 175.89Q488.43 176.43 488.43 177.38L488.43 177.38L487.08 177.38Q487.11 176.38 487.54 175.66Q487.96 174.93 488.72 174.54Q489.48 174.15 490.49 174.15L490.49 174.15Q491.48 174.15 492.20 174.53Q492.93 174.91 493.32 175.62Q493.71 176.32 493.71 177.30L493.71 177.30Q493.71 178.23 493.21 179.15Q492.72 180.06 491.60 181.23L491.60 181.23L488.89 184.02L493.89 184.02L493.89 185.25ZM503.10 185.25L496.35 185.25L496.35 184.02L499.32 184.02L499.32 175.43L496.35 177.65L496.35 176.15L498.82 174.30L500.67 174.30L500.67 184.02L503.10 184.02L503.10 185.25ZM508.33 185.40L508.33 185.40Q507.35 185.40 506.60 185.00Q505.86 184.60 505.45 183.90Q505.05 183.19 505.05 182.25L505.05 182.25L506.40 182.25Q506.40 183.16 506.92 183.68Q507.44 184.20 508.35 184.20L508.35 184.20Q509.28 184.20 509.79 183.66Q510.30 183.12 510.30 182.25L510.30 182.25L510.30 181.47Q510.30 180.54 509.79 180.03Q509.28 179.52 508.35 179.52L508.35 179.52L507.23 179.52L507.23 178.17L509.94 175.53L505.50 175.53L505.50 174.30L511.31 174.30L511.31 175.65L508.38 178.49L508.38 178.32Q509.88 178.32 510.76 179.18Q511.65 180.03 511.65 181.47L511.65 181.47L511.65 182.25Q511.65 183.19 511.24 183.90Q510.82 184.60 510.07 185.00Q509.32 185.40 508.33 185.40ZM517.51 185.40L517.51 185.40Q516.47 185.40 515.68 184.96Q514.89 184.51 514.46 183.72Q514.02 182.93 514.02 181.88L514.02 181.88Q514.02 181.05 514.25 180.25Q514.49 179.46 514.95 178.72L514.95 178.72L517.70 174.30L519.20 174.30L516.09 179.28L516.15 179.32Q516.43 178.91 516.93 178.68Q517.42 178.46 518.04 178.46L518.04 178.46Q518.94 178.46 519.60 178.88Q520.26 179.29 520.62 180.06Q520.98 180.82 520.98 181.88L520.98 181.88Q520.98 182.93 520.54 183.72Q520.11 184.51 519.34 184.96Q518.57 185.40 517.51 185.40ZM517.50 184.20L517.50 184.20Q518.46 184.20 519.04 183.56Q519.63 182.93 519.63 181.88L519.63 181.88Q519.63 180.82 519.04 180.19Q518.46 179.55 517.50 179.55L517.50 179.55Q516.54 179.55 515.96 180.19Q515.37 180.82 515.37 181.88L515.37 181.88Q515.37 182.93 515.96 183.56Q516.54 184.20 517.50 184.20Z" fill="#0A1422"></path><line x1="335" y1="138" x2="445" y2="208" stroke="#0F9C7F" stroke-width="1.5" opacity="0.45"></line><path d="M462.33 213.25L460.85 213.25L459.52 205L460.73 205L461.55 210.85Q461.60 211.18 461.65 211.56Q461.70 211.94 461.73 212.20L461.73 212.20Q461.76 211.94 461.83 211.56Q461.89 211.18 461.94 210.85L461.94 210.85L462.86 205L464.14 205L465.06 210.85Q465.11 211.18 465.17 211.56Q465.24 211.94 465.27 212.20L465.27 212.20Q465.30 211.94 465.37 211.56Q465.44 211.18 465.48 210.85L465.48 210.85L466.33 205L467.48 205L466.10 213.25L464.61 213.25L463.73 207.55Q463.67 207.13 463.59 206.71Q463.51 206.29 463.49 206.05L463.49 206.05Q463.45 206.29 463.39 206.71Q463.33 207.13 463.26 207.55L463.26 207.55L462.33 213.25ZM472.50 213.40L472.50 213.40Q471.52 213.40 470.80 213.01Q470.07 212.62 469.67 211.91Q469.27 211.19 469.27 210.25L469.27 210.25L469.27 208Q469.27 207.04 469.67 206.34Q470.07 205.63 470.80 205.24Q471.52 204.85 472.50 204.85L472.50 204.85Q473.48 204.85 474.20 205.24Q474.93 205.63 475.33 206.34Q475.73 207.04 475.73 208L475.73 208L475.73 209.46L470.60 209.46L470.60 210.25Q470.60 211.22 471.09 211.74Q471.58 212.26 472.50 212.26L472.50 212.26Q473.28 212.26 473.76 211.98Q474.24 211.71 474.35 211.15L474.35 211.15L475.69 211.15Q475.56 212.19 474.68 212.79Q473.81 213.40 472.50 213.40ZM474.51 208.44L474.40 208.56L474.40 208Q474.40 207.03 473.92 206.50Q473.43 205.97 472.50 205.97L472.50 205.97Q471.58 205.97 471.09 206.50Q470.60 207.03 470.60 208L470.60 208L470.60 208.44L474.51 208.44ZM481.98 213.40L481.98 213.40Q480.96 213.40 480.35 212.85Q479.73 212.31 479.73 211.36L479.73 211.36L480 211.68L479.73 211.68L479.73 213.25L478.38 213.25L478.38 202.30L479.73 202.30L479.73 204.70L479.70 206.57L480 206.57L479.73 206.89Q479.73 205.96 480.35 205.41Q480.98 204.85 481.98 204.85L481.98 204.85Q483.23 204.85 483.98 205.68Q484.73 206.50 484.73 207.93L484.73 207.93L484.73 210.34Q484.73 211.75 483.98 212.57Q483.23 213.40 481.98 213.40ZM481.53 212.23L481.53 212.23Q482.38 212.23 482.88 211.72Q483.38 211.21 483.38 210.25L483.38 210.25L483.38 208Q483.38 207.04 482.88 206.53Q482.38 206.02 481.53 206.02L481.53 206.02Q480.70 206.02 480.22 206.54Q479.73 207.07 479.73 208L479.73 208L479.73 210.25Q479.73 211.18 480.22 211.71Q480.70 212.23 481.53 212.23ZM488.73 213.25L487.38 213.25L487.38 202.30L488.73 202.30L488.73 205L488.73 206.57L489.01 206.57L488.73 206.89Q488.73 205.91 489.31 205.38Q489.90 204.85 490.94 204.85L490.94 204.85Q492.18 204.85 492.92 205.62Q493.65 206.38 493.65 207.70L493.65 207.70L493.65 213.25L492.30 213.25L492.30 207.85Q492.30 206.97 491.83 206.48Q491.36 205.99 490.55 205.99L490.55 205.99Q489.70 205.99 489.22 206.51Q488.73 207.04 488.73 208L488.73 208L488.73 213.25ZM499.50 213.37L499.50 213.37Q498.51 213.37 497.79 213.00Q497.07 212.62 496.67 211.91Q496.27 211.19 496.27 210.22L496.27 210.22L496.27 208.03Q496.27 207.04 496.67 206.34Q497.07 205.63 497.79 205.25Q498.51 204.88 499.50 204.88L499.50 204.88Q500.49 204.88 501.21 205.25Q501.93 205.63 502.33 206.34Q502.73 207.04 502.73 208.01L502.73 208.01L502.73 210.22Q502.73 211.19 502.33 211.91Q501.93 212.62 501.21 213.00Q500.49 213.37 499.50 213.37ZM499.50 212.17L499.50 212.17Q500.38 212.17 500.88 211.68Q501.38 211.18 501.38 210.22L501.38 210.22L501.38 208.03Q501.38 207.07 500.88 206.57Q500.38 206.08 499.50 206.08L499.50 206.08Q498.63 206.08 498.13 206.57Q497.63 207.07 497.63 208.03L497.63 208.03L497.63 210.22Q497.63 211.18 498.13 211.68Q498.63 212.17 499.50 212.17ZM508.50 213.37L508.50 213.37Q507.51 213.37 506.79 213.00Q506.07 212.62 505.67 211.91Q505.27 211.19 505.27 210.22L505.27 210.22L505.27 208.03Q505.27 207.04 505.67 206.34Q506.07 205.63 506.79 205.25Q507.51 204.88 508.50 204.88L508.50 204.88Q509.49 204.88 510.21 205.25Q510.93 205.63 511.33 206.34Q511.73 207.04 511.73 208.01L511.73 208.01L511.73 210.22Q511.73 211.19 511.33 211.91Q510.93 212.62 510.21 213.00Q509.49 213.37 508.50 213.37ZM508.50 212.17L508.50 212.17Q509.38 212.17 509.88 211.68Q510.38 211.18 510.38 210.22L510.38 210.22L510.38 208.03Q510.38 207.07 509.88 206.57Q509.38 206.08 508.50 206.08L508.50 206.08Q507.63 206.08 507.13 206.57Q506.63 207.07 506.63 208.03L506.63 208.03L506.63 210.22Q506.63 211.18 507.13 211.68Q507.63 212.17 508.50 212.17ZM515.77 213.25L514.42 213.25L514.42 202.30L515.77 202.30L515.77 208.41L517.37 208.41L519.76 205L521.31 205L518.53 208.93L521.36 213.25L519.78 213.25L517.38 209.57L515.77 209.57L515.77 213.25Z" fill="#0A1422"></path><path d="M589.50 73.37L589.50 73.37Q588.51 73.37 587.79 73.00Q587.07 72.62 586.67 71.91Q586.27 71.19 586.27 70.22L586.27 70.22L586.27 68.03Q586.27 67.04 586.67 66.33Q587.07 65.63 587.79 65.25Q588.51 64.88 589.50 64.88L589.50 64.88Q590.49 64.88 591.21 65.25Q591.93 65.63 592.33 66.33Q592.73 67.04 592.73 68.02L592.73 68.02L592.73 70.22Q592.73 71.19 592.33 71.91Q591.93 72.62 591.21 73.00Q590.49 73.37 589.50 73.37ZM589.50 72.17L589.50 72.17Q590.38 72.17 590.88 71.67Q591.38 71.18 591.38 70.22L591.38 70.22L591.38 68.03Q591.38 67.07 590.88 66.58Q590.38 66.08 589.50 66.08L589.50 66.08Q588.63 66.08 588.13 66.58Q587.63 67.07 587.63 68.03L587.63 68.03L587.63 70.22Q587.63 71.18 588.13 71.67Q588.63 72.17 589.50 72.17ZM596.73 75.95L595.38 75.95L595.38 65L596.73 65L596.73 66.58L597 66.58L596.73 66.89Q596.73 65.94 597.35 65.40Q597.98 64.85 599.00 64.85L599.00 64.85Q600.24 64.85 600.98 65.67Q601.73 66.48 601.73 67.91L601.73 67.91L601.73 70.33Q601.73 71.27 601.39 71.96Q601.05 72.65 600.44 73.03Q599.84 73.40 599.00 73.40L599.00 73.40Q597.99 73.40 597.36 72.84Q596.73 72.29 596.73 71.36L596.73 71.36L597 71.67L596.70 71.67L596.73 73.55L596.73 75.95ZM598.54 72.23L598.54 72.23Q599.40 72.23 599.89 71.72Q600.38 71.21 600.38 70.25L600.38 70.25L600.38 68Q600.38 67.04 599.89 66.53Q599.40 66.02 598.54 66.02L598.54 66.02Q597.72 66.02 597.23 66.55Q596.73 67.07 596.73 68L596.73 68L596.73 70.25Q596.73 71.18 597.23 71.70Q597.72 72.23 598.54 72.23ZM605.73 73.25L604.38 73.25L604.38 65L605.73 65L605.73 66.58L606.01 66.58L605.73 66.89Q605.73 65.92 606.32 65.38Q606.90 64.85 607.93 64.85L607.93 64.85Q609.18 64.85 609.91 65.61Q610.65 66.38 610.65 67.70L610.65 67.70L610.65 73.25L609.30 73.25L609.30 67.85Q609.30 66.97 608.83 66.49Q608.36 66.02 607.54 66.02L607.54 66.02Q606.71 66.02 606.22 66.53Q605.73 67.04 605.73 68L605.73 68L605.73 73.25ZM616.88 73.37L616.25 73.37Q615.40 73.37 614.78 73.11Q614.16 72.84 613.79 72.36Q613.42 71.89 613.35 71.22L613.35 71.22L614.70 71.22Q614.79 71.66 615.19 71.92Q615.59 72.17 616.25 72.17L616.25 72.17L616.88 72.17Q617.67 72.17 618.06 71.85Q618.45 71.53 618.45 70.98L618.45 70.98Q618.45 70.46 618.10 70.15Q617.75 69.84 617.05 69.74L617.05 69.74L615.95 69.56Q614.73 69.35 614.14 68.80Q613.54 68.25 613.54 67.20L613.54 67.20Q613.54 66.09 614.25 65.49Q614.96 64.88 616.37 64.88L616.37 64.88L616.93 64.88Q618.12 64.88 618.84 65.44Q619.56 65.99 619.71 66.94L619.71 66.94L618.36 66.94Q618.27 66.55 617.91 66.31Q617.55 66.08 616.93 66.08L616.93 66.08L616.37 66.08Q615.60 66.08 615.25 66.36Q614.89 66.65 614.89 67.22L614.89 67.22Q614.89 67.73 615.20 67.97Q615.50 68.21 616.14 68.31L616.14 68.31L617.25 68.50Q618.59 68.70 619.19 69.28Q619.80 69.84 619.80 70.92L619.80 70.92Q619.80 72.06 619.07 72.72Q618.35 73.37 616.88 73.37L616.88 73.37ZM625.50 73.40L625.50 73.40Q624.52 73.40 623.80 73.01Q623.07 72.62 622.67 71.91Q622.27 71.19 622.27 70.25L622.27 70.25L622.27 68Q622.27 67.04 622.67 66.33Q623.07 65.63 623.80 65.24Q624.52 64.85 625.50 64.85L625.50 64.85Q626.48 64.85 627.20 65.24Q627.93 65.63 628.33 66.33Q628.73 67.04 628.73 68L628.73 68L628.73 69.45L623.60 69.45L623.60 70.25Q623.60 71.22 624.09 71.74Q624.59 72.26 625.50 72.26L625.50 72.26Q626.28 72.26 626.76 71.98Q627.24 71.70 627.35 71.15L627.35 71.15L628.70 71.15Q628.56 72.19 627.68 72.79Q626.80 73.40 625.50 73.40ZM627.51 68.44L627.40 68.56L627.40 68Q627.40 67.03 626.92 66.50Q626.43 65.97 625.50 65.97L625.50 65.97Q624.59 65.97 624.09 66.50Q623.60 67.03 623.60 68L623.60 68L623.60 68.44L627.51 68.44ZM632.73 73.25L631.38 73.25L631.38 65L632.73 65L632.73 66.58L633.01 66.58L632.73 66.89Q632.73 65.92 633.32 65.38Q633.90 64.85 634.93 64.85L634.93 64.85Q636.18 64.85 636.91 65.61Q637.65 66.38 637.65 67.70L637.65 67.70L637.65 73.25L636.30 73.25L636.30 67.85Q636.30 66.97 635.83 66.49Q635.36 66.02 634.54 66.02L634.54 66.02Q633.71 66.02 633.22 66.53Q632.73 67.04 632.73 68L632.73 68L632.73 73.25ZM643.88 73.37L643.25 73.37Q642.40 73.37 641.78 73.11Q641.16 72.84 640.79 72.36Q640.42 71.89 640.35 71.22L640.35 71.22L641.70 71.22Q641.79 71.66 642.19 71.92Q642.59 72.17 643.25 72.17L643.25 72.17L643.88 72.17Q644.67 72.17 645.06 71.85Q645.45 71.53 645.45 70.98L645.45 70.98Q645.45 70.46 645.10 70.15Q644.75 69.84 644.05 69.74L644.05 69.74L642.95 69.56Q641.73 69.35 641.14 68.80Q640.54 68.25 640.54 67.20L640.54 67.20Q640.54 66.09 641.25 65.49Q641.96 64.88 643.37 64.88L643.37 64.88L643.93 64.88Q645.12 64.88 645.84 65.44Q646.56 65.99 646.71 66.94L646.71 66.94L645.36 66.94Q645.27 66.55 644.91 66.31Q644.55 66.08 643.93 66.08L643.93 66.08L643.37 66.08Q642.60 66.08 642.25 66.36Q641.89 66.65 641.89 67.22L641.89 67.22Q641.89 67.73 642.20 67.97Q642.50 68.21 643.14 68.31L643.14 68.31L644.25 68.50Q645.59 68.70 646.19 69.28Q646.80 69.84 646.80 70.92L646.80 70.92Q646.80 72.06 646.07 72.72Q645.35 73.37 643.88 73.37L643.88 73.37ZM652.50 73.40L652.50 73.40Q651.52 73.40 650.80 73.01Q650.07 72.62 649.67 71.91Q649.27 71.19 649.27 70.25L649.27 70.25L649.27 68Q649.27 67.04 649.67 66.33Q650.07 65.63 650.80 65.24Q651.52 64.85 652.50 64.85L652.50 64.85Q653.48 64.85 654.20 65.24Q654.93 65.63 655.33 66.33Q655.73 67.04 655.73 68L655.73 68L655.73 69.45L650.60 69.45L650.60 70.25Q650.60 71.22 651.09 71.74Q651.59 72.26 652.50 72.26L652.50 72.26Q653.28 72.26 653.76 71.98Q654.24 71.70 654.35 71.15L654.35 71.15L655.70 71.15Q655.56 72.19 654.68 72.79Q653.80 73.40 652.50 73.40ZM654.51 68.44L654.40 68.56L654.40 68Q654.40 67.03 653.92 66.50Q653.43 65.97 652.50 65.97L652.50 65.97Q651.59 65.97 651.09 66.50Q650.60 67.03 650.60 68L650.60 68L650.60 68.44L654.51 68.44Z" fill="#0A1422"></path><path d="M587.73 103.95L586.38 103.95L586.38 93L587.73 93L587.73 94.58L588 94.58L587.73 94.89Q587.73 93.94 588.35 93.40Q588.98 92.85 590.00 92.85L590.00 92.85Q591.24 92.85 591.98 93.67Q592.73 94.48 592.73 95.91L592.73 95.91L592.73 98.33Q592.73 99.27 592.39 99.96Q592.05 100.65 591.44 101.03Q590.84 101.40 590.00 101.40L590.00 101.40Q588.99 101.40 588.36 100.84Q587.73 100.29 587.73 99.36L587.73 99.36L588 99.67L587.70 99.67L587.73 101.55L587.73 103.95ZM589.54 100.23L589.54 100.23Q590.40 100.23 590.89 99.72Q591.38 99.21 591.38 98.25L591.38 98.25L591.38 96Q591.38 95.04 590.89 94.53Q590.40 94.02 589.54 94.02L589.54 94.02Q588.72 94.02 588.23 94.55Q587.73 95.07 587.73 96L587.73 96L587.73 98.25Q587.73 99.18 588.23 99.70Q588.72 100.23 589.54 100.23ZM598.65 101.25L597.30 101.25L597.30 95.06L594.90 95.06L594.90 93.83L597.30 93.83L597.30 92.40Q597.30 91.42 597.91 90.86Q598.53 90.30 599.61 90.30L599.61 90.30L602.02 90.30L602.02 91.53L599.61 91.53Q599.14 91.53 598.90 91.75Q598.65 91.97 598.65 92.40L598.65 92.40L598.65 93.83L602.02 93.83L602.02 95.06L598.65 95.06L598.65 101.25ZM607.88 101.37L607.25 101.37Q606.40 101.37 605.78 101.11Q605.16 100.84 604.79 100.36Q604.42 99.89 604.35 99.22L604.35 99.22L605.70 99.22Q605.79 99.66 606.19 99.92Q606.59 100.17 607.25 100.17L607.25 100.17L607.88 100.17Q608.67 100.17 609.06 99.85Q609.45 99.53 609.45 98.98L609.45 98.98Q609.45 98.46 609.10 98.15Q608.75 97.84 608.05 97.74L608.05 97.74L606.95 97.56Q605.73 97.35 605.14 96.80Q604.54 96.25 604.54 95.20L604.54 95.20Q604.54 94.09 605.25 93.49Q605.96 92.88 607.37 92.88L607.37 92.88L607.93 92.88Q609.12 92.88 609.84 93.44Q610.56 93.99 610.71 94.94L610.71 94.94L609.36 94.94Q609.27 94.55 608.91 94.31Q608.55 94.08 607.93 94.08L607.93 94.08L607.37 94.08Q606.60 94.08 606.25 94.36Q605.89 94.65 605.89 95.22L605.89 95.22Q605.89 95.73 606.20 95.97Q606.50 96.21 607.14 96.31L607.14 96.31L608.25 96.50Q609.59 96.70 610.19 97.28Q610.80 97.84 610.80 98.92L610.80 98.92Q610.80 100.06 610.07 100.72Q609.35 101.37 607.88 101.37L607.88 101.37ZM616.50 101.40L616.50 101.40Q615.52 101.40 614.80 101.01Q614.07 100.62 613.67 99.91Q613.27 99.19 613.27 98.25L613.27 98.25L613.27 96Q613.27 95.04 613.67 94.33Q614.07 93.63 614.80 93.24Q615.52 92.85 616.50 92.85L616.50 92.85Q617.48 92.85 618.20 93.24Q618.93 93.63 619.33 94.33Q619.73 95.04 619.73 96L619.73 96L619.73 97.45L614.60 97.45L614.60 98.25Q614.60 99.22 615.09 99.74Q615.59 100.26 616.50 100.26L616.50 100.26Q617.28 100.26 617.76 99.98Q618.24 99.70 618.35 99.15L618.35 99.15L619.70 99.15Q619.56 100.19 618.68 100.79Q617.80 101.40 616.50 101.40ZM618.51 96.44L618.40 96.56L618.40 96Q618.40 95.03 617.92 94.50Q617.43 93.97 616.50 93.97L616.50 93.97Q615.59 93.97 615.09 94.50Q614.60 95.03 614.60 96L614.60 96L614.60 96.44L618.51 96.44ZM623.73 101.25L622.38 101.25L622.38 93L623.73 93L623.73 94.58L624.01 94.58L623.73 94.89Q623.73 93.92 624.32 93.38Q624.90 92.85 625.93 92.85L625.93 92.85Q627.18 92.85 627.91 93.61Q628.65 94.38 628.65 95.70L628.65 95.70L628.65 101.25L627.30 101.25L627.30 95.85Q627.30 94.97 626.83 94.49Q626.36 94.02 625.54 94.02L625.54 94.02Q624.71 94.02 624.22 94.53Q623.73 95.04 623.73 96L623.73 96L623.73 101.25ZM634.88 101.37L634.25 101.37Q633.40 101.37 632.78 101.11Q632.16 100.84 631.79 100.36Q631.42 99.89 631.35 99.22L631.35 99.22L632.70 99.22Q632.79 99.66 633.19 99.92Q633.59 100.17 634.25 100.17L634.25 100.17L634.88 100.17Q635.67 100.17 636.06 99.85Q636.45 99.53 636.45 98.98L636.45 98.98Q636.45 98.46 636.10 98.15Q635.75 97.84 635.05 97.74L635.05 97.74L633.95 97.56Q632.73 97.35 632.14 96.80Q631.54 96.25 631.54 95.20L631.54 95.20Q631.54 94.09 632.25 93.49Q632.96 92.88 634.37 92.88L634.37 92.88L634.93 92.88Q636.12 92.88 636.84 93.44Q637.56 93.99 637.71 94.94L637.71 94.94L636.36 94.94Q636.27 94.55 635.91 94.31Q635.55 94.08 634.93 94.08L634.93 94.08L634.37 94.08Q633.60 94.08 633.25 94.36Q632.89 94.65 632.89 95.22L632.89 95.22Q632.89 95.73 633.20 95.97Q633.50 96.21 634.14 96.31L634.14 96.31L635.25 96.50Q636.59 96.70 637.19 97.28Q637.80 97.84 637.80 98.92L637.80 98.92Q637.80 100.06 637.07 100.72Q636.35 101.37 634.88 101.37L634.88 101.37ZM643.50 101.40L643.50 101.40Q642.52 101.40 641.80 101.01Q641.07 100.62 640.67 99.91Q640.27 99.19 640.27 98.25L640.27 98.25L640.27 96Q640.27 95.04 640.67 94.33Q641.07 93.63 641.80 93.24Q642.52 92.85 643.50 92.85L643.50 92.85Q644.48 92.85 645.20 93.24Q645.93 93.63 646.33 94.33Q646.73 95.04 646.73 96L646.73 96L646.73 97.45L641.60 97.45L641.60 98.25Q641.60 99.22 642.09 99.74Q642.59 100.26 643.50 100.26L643.50 100.26Q644.28 100.26 644.76 99.98Q645.24 99.70 645.35 99.15L645.35 99.15L646.70 99.15Q646.56 100.19 645.68 100.79Q644.80 101.40 643.50 101.40ZM645.51 96.44L645.40 96.56L645.40 96Q645.40 95.03 644.92 94.50Q644.43 93.97 643.50 93.97L643.50 93.97Q642.59 93.97 642.09 94.50Q641.60 95.03 641.60 96L641.60 96L641.60 96.44L645.51 96.44Z" fill="#0A1422"></path><path d="M587.73 131.95L586.38 131.95L586.38 121L587.73 121L587.73 122.58L588 122.58L587.73 122.89Q587.73 121.94 588.35 121.40Q588.98 120.85 590.00 120.85L590.00 120.85Q591.24 120.85 591.98 121.67Q592.73 122.48 592.73 123.91L592.73 123.91L592.73 126.33Q592.73 127.27 592.39 127.96Q592.05 128.65 591.44 129.03Q590.84 129.40 590.00 129.40L590.00 129.40Q588.99 129.40 588.36 128.84Q587.73 128.29 587.73 127.36L587.73 127.36L588 127.67L587.70 127.67L587.73 129.55L587.73 131.95ZM589.54 128.23L589.54 128.23Q590.40 128.23 590.89 127.72Q591.38 127.21 591.38 126.25L591.38 126.25L591.38 124Q591.38 123.04 590.89 122.53Q590.40 122.02 589.54 122.02L589.54 122.02Q588.72 122.02 588.23 122.55Q587.73 123.07 587.73 124L587.73 124L587.73 126.25Q587.73 127.18 588.23 127.70Q588.72 128.23 589.54 128.23ZM598.50 129.37L598.50 129.37Q597.51 129.37 596.79 129.00Q596.07 128.62 595.67 127.91Q595.27 127.19 595.27 126.22L595.27 126.22L595.27 124.03Q595.27 123.04 595.67 122.33Q596.07 121.63 596.79 121.25Q597.51 120.88 598.50 120.88L598.50 120.88Q599.49 120.88 600.21 121.25Q600.93 121.63 601.33 122.33Q601.73 123.04 601.73 124.02L601.73 124.02L601.73 126.22Q601.73 127.19 601.33 127.91Q600.93 128.62 600.21 129.00Q599.49 129.37 598.50 129.37ZM598.50 128.17L598.50 128.17Q599.38 128.17 599.88 127.67Q600.38 127.18 600.38 126.22L600.38 126.22L600.38 124.03Q600.38 123.07 599.88 122.58Q599.38 122.08 598.50 122.08L598.50 122.08Q597.63 122.08 597.13 122.58Q596.63 123.07 596.63 124.03L596.63 124.03L596.63 126.22Q596.63 127.18 597.13 127.67Q597.63 128.17 598.50 128.17ZM606.33 129.25L604.85 129.25L603.52 121L604.73 121L605.55 126.85Q605.60 127.18 605.65 127.56Q605.70 127.94 605.73 128.20L605.73 128.20Q605.76 127.94 605.83 127.56Q605.89 127.18 605.94 126.85L605.94 126.85L606.86 121L608.14 121L609.06 126.85Q609.11 127.18 609.17 127.56Q609.24 127.94 609.27 128.20L609.27 128.20Q609.30 127.94 609.37 127.56Q609.43 127.18 609.48 126.85L609.48 126.85L610.34 121L611.48 121L610.10 129.25L608.61 129.25L607.73 123.55Q607.66 123.13 607.59 122.71Q607.51 122.29 607.49 122.05L607.49 122.05Q607.46 122.29 607.39 122.71Q607.34 123.13 607.26 123.55L607.26 123.55L606.33 129.25ZM616.50 129.40L616.50 129.40Q615.52 129.40 614.80 129.01Q614.07 128.62 613.67 127.91Q613.27 127.19 613.27 126.25L613.27 126.25L613.27 124Q613.27 123.04 613.67 122.33Q614.07 121.63 614.80 121.24Q615.52 120.85 616.50 120.85L616.50 120.85Q617.48 120.85 618.20 121.24Q618.93 121.63 619.33 122.33Q619.73 123.04 619.73 124L619.73 124L619.73 125.45L614.60 125.45L614.60 126.25Q614.60 127.22 615.09 127.74Q615.59 128.26 616.50 128.26L616.50 128.26Q617.28 128.26 617.76 127.98Q618.24 127.70 618.35 127.15L618.35 127.15L619.70 127.15Q619.56 128.19 618.68 128.79Q617.80 129.40 616.50 129.40ZM618.51 124.44L618.40 124.56L618.40 124Q618.40 123.03 617.92 122.50Q617.43 121.97 616.50 121.97L616.50 121.97Q615.59 121.97 615.09 122.50Q614.60 123.03 614.60 124L614.60 124L614.60 124.44L618.51 124.44ZM624.01 129.25L622.66 129.25L622.66 121L623.99 121L623.99 122.58L624.30 122.58L623.87 123.55Q623.87 122.22 624.44 121.53Q625.02 120.85 626.16 120.85L626.16 120.85Q627.47 120.85 628.24 121.67Q629.01 122.48 629.01 123.88L629.01 123.88L629.01 124.38L627.66 124.38L627.66 124Q627.66 123.03 627.19 122.51Q626.72 121.99 625.85 121.99L625.85 121.99Q624.99 121.99 624.50 122.52Q624.01 123.04 624.01 124L624.01 124L624.01 129.25ZM634.02 129.40L634.02 129.40Q632.79 129.40 632.03 128.57Q631.27 127.75 631.27 126.34L631.27 126.34L631.27 123.92Q631.27 122.50 632.02 121.67Q632.77 120.85 634.02 120.85L634.02 120.85Q635.04 120.85 635.65 121.41Q636.27 121.96 636.27 122.89L636.27 122.89L636 122.58L636.30 122.58L636.27 120.70L636.27 118.30L637.62 118.30L637.62 129.25L636.27 129.25L636.27 127.67L636 127.67L636.27 127.36Q636.27 128.31 635.65 128.85Q635.04 129.40 634.02 129.40ZM634.47 128.23L634.47 128.23Q635.31 128.23 635.79 127.70Q636.27 127.18 636.27 126.25L636.27 126.25L636.27 124Q636.27 123.07 635.79 122.55Q635.31 122.02 634.47 122.02L634.47 122.02Q633.62 122.02 633.12 122.53Q632.63 123.04 632.63 124L632.63 124L632.63 126.25Q632.63 127.21 633.12 127.72Q633.62 128.23 634.47 128.23ZM641.73 129.25L640.38 129.25L640.38 121L641.73 121L641.73 122.58L642.01 122.58L641.73 122.89Q641.73 121.92 642.32 121.38Q642.90 120.85 643.93 120.85L643.93 120.85Q645.18 120.85 645.91 121.61Q646.65 122.38 646.65 123.70L646.65 123.70L646.65 129.25L645.30 129.25L645.30 123.85Q645.30 122.97 644.83 122.49Q644.36 122.02 643.54 122.02L643.54 122.02Q642.71 122.02 642.22 122.53Q641.73 123.04 641.73 124L641.73 124L641.73 129.25ZM652.88 129.37L652.25 129.37Q651.40 129.37 650.78 129.11Q650.16 128.84 649.79 128.37Q649.42 127.89 649.35 127.22L649.35 127.22L650.70 127.22Q650.79 127.66 651.19 127.92Q651.59 128.17 652.25 128.17L652.25 128.17L652.88 128.17Q653.67 128.17 654.06 127.85Q654.45 127.53 654.45 126.98L654.45 126.98Q654.45 126.46 654.10 126.15Q653.75 125.84 653.05 125.74L653.05 125.74L651.95 125.56Q650.73 125.35 650.14 124.80Q649.54 124.25 649.54 123.20L649.54 123.20Q649.54 122.09 650.25 121.49Q650.96 120.88 652.37 120.88L652.37 120.88L652.93 120.88Q654.12 120.88 654.84 121.44Q655.56 121.99 655.71 122.94L655.71 122.94L654.36 122.94Q654.27 122.55 653.91 122.31Q653.55 122.08 652.93 122.08L652.93 122.08L652.37 122.08Q651.60 122.08 651.25 122.36Q650.89 122.65 650.89 123.22L650.89 123.22Q650.89 123.73 651.20 123.97Q651.50 124.21 652.14 124.31L652.14 124.31L653.25 124.50Q654.59 124.70 655.19 125.28Q655.80 125.84 655.80 126.92L655.80 126.92Q655.80 128.06 655.07 128.72Q654.35 129.37 652.88 129.37L652.88 129.37Z" fill="#0A1422"></path><path d="M589.56 157.40L589.56 157.40Q588.57 157.40 587.83 157.03Q587.09 156.65 586.68 155.94Q586.27 155.22 586.27 154.25L586.27 154.25L586.27 152Q586.27 151.01 586.68 150.31Q587.09 149.60 587.83 149.22Q588.57 148.85 589.56 148.85L589.56 148.85Q590.99 148.85 591.86 149.62Q592.73 150.38 592.77 151.70L592.77 151.70L591.42 151.70Q591.38 150.91 590.89 150.48Q590.40 150.05 589.56 150.05L589.56 150.05Q588.67 150.05 588.15 150.55Q587.63 151.06 587.63 151.99L587.63 151.99L587.63 154.25Q587.63 155.18 588.15 155.69Q588.67 156.20 589.56 156.20L589.56 156.20Q590.40 156.20 590.89 155.76Q591.38 155.33 591.42 154.55L591.42 154.55L592.77 154.55Q592.73 155.87 591.86 156.63Q590.99 157.40 589.56 157.40ZM602.25 157.25L599.63 157.25Q598.90 157.25 598.37 156.97Q597.83 156.68 597.52 156.16Q597.23 155.63 597.23 154.93L597.23 154.93L597.23 147.53L594.45 147.53L594.45 146.30L598.58 146.30L598.58 154.93Q598.58 155.44 598.86 155.73Q599.14 156.02 599.63 156.02L599.63 156.02L602.25 156.02L602.25 157.25ZM607.50 157.37L607.50 157.37Q606.51 157.37 605.79 157.00Q605.07 156.62 604.67 155.91Q604.27 155.19 604.27 154.22L604.27 154.22L604.27 152.03Q604.27 151.04 604.67 150.34Q605.07 149.63 605.79 149.25Q606.51 148.88 607.50 148.88L607.50 148.88Q608.49 148.88 609.21 149.25Q609.93 149.63 610.33 150.34Q610.73 151.04 610.73 152.01L610.73 152.01L610.73 154.22Q610.73 155.19 610.33 155.91Q609.93 156.62 609.21 157.00Q608.49 157.37 607.50 157.37ZM607.50 156.17L607.50 156.17Q608.38 156.17 608.88 155.68Q609.38 155.18 609.38 154.22L609.38 154.22L609.38 152.03Q609.38 151.07 608.88 150.57Q608.38 150.08 607.50 150.08L607.50 150.08Q606.63 150.08 606.13 150.57Q605.63 151.07 605.63 152.03L605.63 152.03L605.63 154.22Q605.63 155.18 606.13 155.68Q606.63 156.17 607.50 156.17ZM616.49 157.40L616.49 157.40Q615.06 157.40 614.21 156.55Q613.35 155.71 613.35 154.25L613.35 154.25L613.35 149L614.70 149L614.70 154.25Q614.70 155.18 615.18 155.70Q615.66 156.22 616.49 156.22L616.49 156.22Q617.33 156.22 617.81 155.70Q618.30 155.18 618.30 154.25L618.30 154.25L618.30 149L619.65 149L619.65 154.25Q619.65 155.71 618.78 156.55Q617.91 157.40 616.49 157.40ZM625.02 157.40L625.02 157.40Q623.79 157.40 623.03 156.57Q622.27 155.75 622.27 154.34L622.27 154.34L622.27 151.93Q622.27 150.50 623.02 149.68Q623.77 148.85 625.02 148.85L625.02 148.85Q626.04 148.85 626.65 149.41Q627.27 149.96 627.27 150.89L627.27 150.89L627 150.57L627.30 150.57L627.27 148.70L627.27 146.30L628.62 146.30L628.62 157.25L627.27 157.25L627.27 155.68L627 155.68L627.27 155.36Q627.27 156.31 626.65 156.85Q626.04 157.40 625.02 157.40ZM625.47 156.23L625.47 156.23Q626.31 156.23 626.79 155.71Q627.27 155.18 627.27 154.25L627.27 154.25L627.27 152Q627.27 151.07 626.79 150.54Q626.31 150.02 625.47 150.02L625.47 150.02Q624.62 150.02 624.12 150.53Q623.63 151.04 623.63 152L623.63 152L623.63 154.25Q623.63 155.21 624.12 155.72Q624.62 156.23 625.47 156.23ZM634.65 157.25L633.30 157.25L633.30 151.06L630.90 151.06L630.90 149.82L633.30 149.82L633.30 148.40Q633.30 147.43 633.91 146.86Q634.53 146.30 635.61 146.30L635.61 146.30L638.02 146.30L638.02 147.53L635.61 147.53Q635.14 147.53 634.90 147.75Q634.65 147.97 634.65 148.40L634.65 148.40L634.65 149.82L638.02 149.82L638.02 151.06L634.65 151.06L634.65 157.25ZM647.25 157.25L644.63 157.25Q643.90 157.25 643.37 156.97Q642.83 156.68 642.52 156.16Q642.23 155.63 642.23 154.93L642.23 154.93L642.23 147.53L639.45 147.53L639.45 146.30L643.58 146.30L643.58 154.93Q643.58 155.44 643.86 155.73Q644.14 156.02 644.63 156.02L644.63 156.02L647.25 156.02L647.25 157.25ZM651.78 157.40L651.78 157.40Q650.48 157.40 649.73 156.73Q648.98 156.06 648.98 154.93L648.98 154.93Q648.98 153.77 649.73 153.11Q650.48 152.45 651.75 152.45L651.75 152.45L654.30 152.45L654.30 151.63Q654.30 150.86 653.84 150.45Q653.38 150.03 652.54 150.03L652.54 150.03Q651.81 150.03 651.32 150.34Q650.82 150.65 650.75 151.18L650.75 151.18L649.39 151.18Q649.53 150.11 650.40 149.48Q651.27 148.85 652.58 148.85L652.58 148.85Q654 148.85 654.83 149.59Q655.65 150.32 655.65 151.58L655.65 151.58L655.65 157.25L654.33 157.25L654.33 155.68L654.11 155.68L654.33 155.45Q654.33 156.35 653.63 156.88Q652.93 157.40 651.78 157.40ZM652.11 156.34L652.11 156.34Q653.07 156.34 653.68 155.85Q654.30 155.38 654.30 154.63L654.30 154.63L654.30 153.46L651.78 153.46Q651.11 153.46 650.72 153.83Q650.33 154.21 650.33 154.85L650.33 154.85Q650.33 155.54 650.80 155.94Q651.27 156.34 652.11 156.34ZM660.01 157.25L658.66 157.25L658.66 149L659.99 149L659.99 150.57L660.30 150.57L659.87 151.55Q659.87 150.22 660.44 149.53Q661.02 148.85 662.16 148.85L662.16 148.85Q663.47 148.85 664.24 149.67Q665.01 150.49 665.01 151.88L665.01 151.88L665.01 152.38L663.66 152.38L663.66 152Q663.66 151.03 663.19 150.51Q662.72 149.99 661.85 149.99L661.85 149.99Q660.99 149.99 660.50 150.51Q660.01 151.04 660.01 152L660.01 152L660.01 157.25ZM670.50 157.40L670.50 157.40Q669.52 157.40 668.80 157.01Q668.07 156.62 667.67 155.91Q667.27 155.19 667.27 154.25L667.27 154.25L667.27 152Q667.27 151.04 667.67 150.34Q668.07 149.63 668.80 149.24Q669.52 148.85 670.50 148.85L670.50 148.85Q671.48 148.85 672.20 149.24Q672.93 149.63 673.33 150.34Q673.73 151.04 673.73 152L673.73 152L673.73 153.46L668.60 153.46L668.60 154.25Q668.60 155.22 669.09 155.74Q669.59 156.26 670.50 156.26L670.50 156.26Q671.28 156.26 671.76 155.98Q672.24 155.71 672.35 155.15L672.35 155.15L673.70 155.15Q673.56 156.19 672.68 156.79Q671.80 157.40 670.50 157.40ZM672.51 152.44L672.40 152.56L672.40 152Q672.40 151.03 671.92 150.50Q671.43 149.97 670.50 149.97L670.50 149.97Q669.59 149.97 669.09 150.50Q668.60 151.03 668.60 152L668.60 152L668.60 152.44L672.51 152.44Z" fill="#0A1422"></path><path d="M589.50 185.37L589.50 185.37Q588.51 185.37 587.79 185.00Q587.07 184.62 586.67 183.91Q586.27 183.19 586.27 182.22L586.27 182.22L586.27 180.03Q586.27 179.04 586.67 178.34Q587.07 177.63 587.79 177.25Q588.51 176.88 589.50 176.88L589.50 176.88Q590.49 176.88 591.21 177.25Q591.93 177.63 592.33 178.34Q592.73 179.04 592.73 180.01L592.73 180.01L592.73 182.22Q592.73 183.19 592.33 183.91Q591.93 184.62 591.21 185.00Q590.49 185.37 589.50 185.37ZM589.50 184.17L589.50 184.17Q590.38 184.17 590.88 183.68Q591.38 183.18 591.38 182.22L591.38 182.22L591.38 180.03Q591.38 179.07 590.88 178.57Q590.38 178.08 589.50 178.08L589.50 178.08Q588.63 178.08 588.13 178.57Q587.63 179.07 587.63 180.03L587.63 180.03L587.63 182.22Q587.63 183.18 588.13 183.68Q588.63 184.17 589.50 184.17ZM599.41 185.25L597.59 185.25L594.83 177L596.21 177L598.03 182.55Q598.20 183.04 598.34 183.50Q598.47 183.96 598.53 184.22L598.53 184.22Q598.61 183.96 598.74 183.50Q598.88 183.04 599.02 182.55L599.02 182.55L600.81 177L602.17 177L599.41 185.25ZM605.73 185.25L604.38 185.25L604.38 174.30L605.73 174.30L605.73 177L605.73 178.57L606.01 178.57L605.73 178.89Q605.73 177.91 606.32 177.38Q606.90 176.85 607.93 176.85L607.93 176.85Q609.18 176.85 609.91 177.62Q610.65 178.38 610.65 179.70L610.65 179.70L610.65 185.25L609.30 185.25L609.30 179.85Q609.30 178.97 608.83 178.48Q608.36 177.99 607.54 177.99L607.54 177.99Q606.71 177.99 606.22 178.51Q605.73 179.04 605.73 180L605.73 180L605.73 185.25Z" fill="#0A1422"></path></g></svg>